solid OpenSCAD_Model
  facet normal -0 0 1
    outer loop
      vertex -0.879066 13.9724 14
      vertex 0 -14 14
      vertex 0 14 14
    endloop
  endfacet
  facet normal 0 0 1
    outer loop
      vertex -0.879066 13.9724 14
      vertex -0.879066 -13.9724 14
      vertex 0 -14 14
    endloop
  endfacet
  facet normal -0 0 1
    outer loop
      vertex -1.75466 13.8896 14
      vertex -0.879066 -13.9724 14
      vertex -0.879066 13.9724 14
    endloop
  endfacet
  facet normal 0 0 1
    outer loop
      vertex -1.75466 13.8896 14
      vertex -1.75466 -13.8896 14
      vertex -0.879066 -13.9724 14
    endloop
  endfacet
  facet normal -0 0 1
    outer loop
      vertex -2.62334 13.752 14
      vertex -1.75466 -13.8896 14
      vertex -1.75466 13.8896 14
    endloop
  endfacet
  facet normal 0 0 1
    outer loop
      vertex -2.62334 13.752 14
      vertex -2.62334 -13.752 14
      vertex -1.75466 -13.8896 14
    endloop
  endfacet
  facet normal -0 0 1
    outer loop
      vertex -3.48166 13.5602 14
      vertex -2.62334 -13.752 14
      vertex -2.62334 13.752 14
    endloop
  endfacet
  facet normal 0 0 1
    outer loop
      vertex -3.48166 13.5602 14
      vertex -3.48166 -13.5602 14
      vertex -2.62334 -13.752 14
    endloop
  endfacet
  facet normal -0 0 1
    outer loop
      vertex -4.32624 13.3148 14
      vertex -3.48166 -13.5602 14
      vertex -3.48166 13.5602 14
    endloop
  endfacet
  facet normal 0 0 1
    outer loop
      vertex -4.32624 13.3148 14
      vertex -4.32624 -13.3148 14
      vertex -3.48166 -13.5602 14
    endloop
  endfacet
  facet normal -0 0 1
    outer loop
      vertex -5.15374 13.0169 14
      vertex -4.32624 -13.3148 14
      vertex -4.32624 13.3148 14
    endloop
  endfacet
  facet normal 0 0 1
    outer loop
      vertex -5.15374 13.0169 14
      vertex -5.15374 -13.0169 14
      vertex -4.32624 -13.3148 14
    endloop
  endfacet
  facet normal -0 0 1
    outer loop
      vertex -5.96091 12.6676 14
      vertex -5.15374 -13.0169 14
      vertex -5.15374 13.0169 14
    endloop
  endfacet
  facet normal 0 0 1
    outer loop
      vertex -5.96091 12.6676 14
      vertex -5.96091 -12.6676 14
      vertex -5.15374 -13.0169 14
    endloop
  endfacet
  facet normal -0 0 1
    outer loop
      vertex -6.74455 12.2683 14
      vertex -5.96091 -12.6676 14
      vertex -5.96091 12.6676 14
    endloop
  endfacet
  facet normal 0 0 1
    outer loop
      vertex -6.74455 12.2683 14
      vertex -6.74455 -12.2683 14
      vertex -5.96091 -12.6676 14
    endloop
  endfacet
  facet normal -0 0 1
    outer loop
      vertex -7.50157 11.8206 14
      vertex -6.74455 -12.2683 14
      vertex -6.74455 12.2683 14
    endloop
  endfacet
  facet normal 0 0 1
    outer loop
      vertex -7.50157 11.8206 14
      vertex -7.50157 -11.8206 14
      vertex -6.74455 -12.2683 14
    endloop
  endfacet
  facet normal -0 0 1
    outer loop
      vertex -8.22899 11.3262 14
      vertex -7.50157 -11.8206 14
      vertex -7.50157 11.8206 14
    endloop
  endfacet
  facet normal 0 0 1
    outer loop
      vertex -8.22899 11.3262 14
      vertex -8.22899 -11.3262 14
      vertex -7.50157 -11.8206 14
    endloop
  endfacet
  facet normal -0 0 1
    outer loop
      vertex -8.92393 10.7872 14
      vertex -8.22899 -11.3262 14
      vertex -8.22899 11.3262 14
    endloop
  endfacet
  facet normal 0 0 1
    outer loop
      vertex -8.92393 10.7872 14
      vertex -8.92393 -10.7872 14
      vertex -8.22899 -11.3262 14
    endloop
  endfacet
  facet normal -0 0 1
    outer loop
      vertex -9.58366 10.2056 14
      vertex -8.92393 -10.7872 14
      vertex -8.92393 10.7872 14
    endloop
  endfacet
  facet normal 0 0 1
    outer loop
      vertex -9.58366 10.2056 14
      vertex -9.58366 -10.2056 14
      vertex -8.92393 -10.7872 14
    endloop
  endfacet
  facet normal -0 0 1
    outer loop
      vertex -10.2056 9.58366 14
      vertex -9.58366 -10.2056 14
      vertex -9.58366 10.2056 14
    endloop
  endfacet
  facet normal 0 0 1
    outer loop
      vertex -10.2056 9.58366 14
      vertex -10.2056 -9.58366 14
      vertex -9.58366 -10.2056 14
    endloop
  endfacet
  facet normal -0 0 1
    outer loop
      vertex -10.7872 8.92393 14
      vertex -10.2056 -9.58366 14
      vertex -10.2056 9.58366 14
    endloop
  endfacet
  facet normal 0 0 1
    outer loop
      vertex -10.7872 8.92393 14
      vertex -10.7872 -8.92393 14
      vertex -10.2056 -9.58366 14
    endloop
  endfacet
  facet normal -0 0 1
    outer loop
      vertex -11.3262 8.22899 14
      vertex -10.7872 -8.92393 14
      vertex -10.7872 8.92393 14
    endloop
  endfacet
  facet normal 0 0 1
    outer loop
      vertex -11.3262 8.22899 14
      vertex -11.3262 -8.22899 14
      vertex -10.7872 -8.92393 14
    endloop
  endfacet
  facet normal -0 0 1
    outer loop
      vertex -11.8206 7.50157 14
      vertex -11.3262 -8.22899 14
      vertex -11.3262 8.22899 14
    endloop
  endfacet
  facet normal 0 0 1
    outer loop
      vertex -11.8206 7.50157 14
      vertex -11.8206 -7.50157 14
      vertex -11.3262 -8.22899 14
    endloop
  endfacet
  facet normal -0 0 1
    outer loop
      vertex -12.2683 6.74455 14
      vertex -11.8206 -7.50157 14
      vertex -11.8206 7.50157 14
    endloop
  endfacet
  facet normal 0 0 1
    outer loop
      vertex -12.2683 6.74455 14
      vertex -12.2683 -6.74455 14
      vertex -11.8206 -7.50157 14
    endloop
  endfacet
  facet normal -0 0 1
    outer loop
      vertex -12.6676 5.96091 14
      vertex -12.2683 -6.74455 14
      vertex -12.2683 6.74455 14
    endloop
  endfacet
  facet normal 0 0 1
    outer loop
      vertex -12.6676 5.96091 14
      vertex -12.6676 -5.96091 14
      vertex -12.2683 -6.74455 14
    endloop
  endfacet
  facet normal -0 0 1
    outer loop
      vertex -13.0169 5.15374 14
      vertex -12.6676 -5.96091 14
      vertex -12.6676 5.96091 14
    endloop
  endfacet
  facet normal 0 0 1
    outer loop
      vertex -13.0169 5.15374 14
      vertex -13.0169 -5.15374 14
      vertex -12.6676 -5.96091 14
    endloop
  endfacet
  facet normal -0 0 1
    outer loop
      vertex -13.3148 4.32624 14
      vertex -13.0169 -5.15374 14
      vertex -13.0169 5.15374 14
    endloop
  endfacet
  facet normal 0 0 1
    outer loop
      vertex -13.3148 4.32624 14
      vertex -13.3148 -4.32624 14
      vertex -13.0169 -5.15374 14
    endloop
  endfacet
  facet normal -0 0 1
    outer loop
      vertex -13.5602 3.48166 14
      vertex -13.3148 -4.32624 14
      vertex -13.3148 4.32624 14
    endloop
  endfacet
  facet normal 0 0 1
    outer loop
      vertex -13.5602 3.48166 14
      vertex -13.5602 -3.48166 14
      vertex -13.3148 -4.32624 14
    endloop
  endfacet
  facet normal -0 0 1
    outer loop
      vertex -13.752 2.62334 14
      vertex -13.5602 -3.48166 14
      vertex -13.5602 3.48166 14
    endloop
  endfacet
  facet normal 0 0 1
    outer loop
      vertex -13.752 2.62334 14
      vertex -13.752 -2.62334 14
      vertex -13.5602 -3.48166 14
    endloop
  endfacet
  facet normal -0 0 1
    outer loop
      vertex -13.8896 1.75466 14
      vertex -13.752 -2.62334 14
      vertex -13.752 2.62334 14
    endloop
  endfacet
  facet normal 0 0 1
    outer loop
      vertex -13.8896 1.75466 14
      vertex -13.8896 -1.75466 14
      vertex -13.752 -2.62334 14
    endloop
  endfacet
  facet normal -0 0 1
    outer loop
      vertex -13.9724 0.879066 14
      vertex -13.8896 -1.75466 14
      vertex -13.8896 1.75466 14
    endloop
  endfacet
  facet normal 0 0 1
    outer loop
      vertex -13.9724 0.879066 14
      vertex -13.9724 -0.879066 14
      vertex -13.8896 -1.75466 14
    endloop
  endfacet
  facet normal 0 -0 1
    outer loop
      vertex -13.9724 -0.879066 14
      vertex -13.9724 0.879066 14
      vertex -14 0 14
    endloop
  endfacet
  facet normal 0 0 -1
    outer loop
      vertex -0.879066 -13.9724 0
      vertex 0 14 0
      vertex 0 -14 0
    endloop
  endfacet
  facet normal 0 0 -1
    outer loop
      vertex -0.879066 -13.9724 0
      vertex -0.879066 13.9724 0
      vertex 0 14 0
    endloop
  endfacet
  facet normal 0 0 -1
    outer loop
      vertex -1.75466 -13.8896 0
      vertex -0.879066 13.9724 0
      vertex -0.879066 -13.9724 0
    endloop
  endfacet
  facet normal 0 0 -1
    outer loop
      vertex -1.75466 -13.8896 0
      vertex -1.75466 13.8896 0
      vertex -0.879066 13.9724 0
    endloop
  endfacet
  facet normal 0 0 -1
    outer loop
      vertex -2.62334 -13.752 0
      vertex -1.75466 13.8896 0
      vertex -1.75466 -13.8896 0
    endloop
  endfacet
  facet normal 0 0 -1
    outer loop
      vertex -2.62334 -13.752 0
      vertex -2.62334 13.752 0
      vertex -1.75466 13.8896 0
    endloop
  endfacet
  facet normal 0 0 -1
    outer loop
      vertex -3.48166 -13.5602 0
      vertex -2.62334 13.752 0
      vertex -2.62334 -13.752 0
    endloop
  endfacet
  facet normal 0 0 -1
    outer loop
      vertex -3.48166 -13.5602 0
      vertex -3.48166 13.5602 0
      vertex -2.62334 13.752 0
    endloop
  endfacet
  facet normal 0 0 -1
    outer loop
      vertex -4.32624 -13.3148 0
      vertex -3.48166 13.5602 0
      vertex -3.48166 -13.5602 0
    endloop
  endfacet
  facet normal 0 0 -1
    outer loop
      vertex -4.32624 -13.3148 0
      vertex -4.32624 13.3148 0
      vertex -3.48166 13.5602 0
    endloop
  endfacet
  facet normal 0 0 -1
    outer loop
      vertex -5.15374 -13.0169 0
      vertex -4.32624 13.3148 0
      vertex -4.32624 -13.3148 0
    endloop
  endfacet
  facet normal 0 0 -1
    outer loop
      vertex -5.15374 -13.0169 0
      vertex -5.15374 13.0169 0
      vertex -4.32624 13.3148 0
    endloop
  endfacet
  facet normal 0 0 -1
    outer loop
      vertex -5.96091 -12.6676 0
      vertex -5.15374 13.0169 0
      vertex -5.15374 -13.0169 0
    endloop
  endfacet
  facet normal 0 0 -1
    outer loop
      vertex -5.96091 -12.6676 0
      vertex -5.96091 12.6676 0
      vertex -5.15374 13.0169 0
    endloop
  endfacet
  facet normal 0 0 -1
    outer loop
      vertex -6.74455 -12.2683 0
      vertex -5.96091 12.6676 0
      vertex -5.96091 -12.6676 0
    endloop
  endfacet
  facet normal 0 0 -1
    outer loop
      vertex -6.74455 -12.2683 0
      vertex -6.74455 12.2683 0
      vertex -5.96091 12.6676 0
    endloop
  endfacet
  facet normal 0 0 -1
    outer loop
      vertex -7.50157 -11.8206 0
      vertex -6.74455 12.2683 0
      vertex -6.74455 -12.2683 0
    endloop
  endfacet
  facet normal 0 0 -1
    outer loop
      vertex -7.50157 -11.8206 0
      vertex -7.50157 11.8206 0
      vertex -6.74455 12.2683 0
    endloop
  endfacet
  facet normal 0 0 -1
    outer loop
      vertex -8.22899 -11.3262 0
      vertex -7.50157 11.8206 0
      vertex -7.50157 -11.8206 0
    endloop
  endfacet
  facet normal 0 0 -1
    outer loop
      vertex -8.22899 -11.3262 0
      vertex -8.22899 11.3262 0
      vertex -7.50157 11.8206 0
    endloop
  endfacet
  facet normal 0 0 -1
    outer loop
      vertex -8.92393 -10.7872 0
      vertex -8.22899 11.3262 0
      vertex -8.22899 -11.3262 0
    endloop
  endfacet
  facet normal 0 0 -1
    outer loop
      vertex -8.92393 -10.7872 0
      vertex -8.92393 10.7872 0
      vertex -8.22899 11.3262 0
    endloop
  endfacet
  facet normal 0 0 -1
    outer loop
      vertex -9.58366 -10.2056 0
      vertex -8.92393 10.7872 0
      vertex -8.92393 -10.7872 0
    endloop
  endfacet
  facet normal 0 0 -1
    outer loop
      vertex -9.58366 -10.2056 0
      vertex -9.58366 10.2056 0
      vertex -8.92393 10.7872 0
    endloop
  endfacet
  facet normal 0 0 -1
    outer loop
      vertex -10.2056 -9.58366 0
      vertex -9.58366 10.2056 0
      vertex -9.58366 -10.2056 0
    endloop
  endfacet
  facet normal 0 0 -1
    outer loop
      vertex -10.2056 -9.58366 0
      vertex -10.2056 9.58366 0
      vertex -9.58366 10.2056 0
    endloop
  endfacet
  facet normal 0 0 -1
    outer loop
      vertex -10.7872 -8.92393 0
      vertex -10.2056 9.58366 0
      vertex -10.2056 -9.58366 0
    endloop
  endfacet
  facet normal 0 0 -1
    outer loop
      vertex -10.7872 -8.92393 0
      vertex -10.7872 8.92393 0
      vertex -10.2056 9.58366 0
    endloop
  endfacet
  facet normal 0 0 -1
    outer loop
      vertex -11.3262 -8.22899 0
      vertex -10.7872 8.92393 0
      vertex -10.7872 -8.92393 0
    endloop
  endfacet
  facet normal 0 0 -1
    outer loop
      vertex -11.3262 -8.22899 0
      vertex -11.3262 8.22899 0
      vertex -10.7872 8.92393 0
    endloop
  endfacet
  facet normal 0 0 -1
    outer loop
      vertex -11.8206 -7.50157 0
      vertex -11.3262 8.22899 0
      vertex -11.3262 -8.22899 0
    endloop
  endfacet
  facet normal 0 0 -1
    outer loop
      vertex -11.8206 -7.50157 0
      vertex -11.8206 7.50157 0
      vertex -11.3262 8.22899 0
    endloop
  endfacet
  facet normal 0 0 -1
    outer loop
      vertex -12.2683 -6.74455 0
      vertex -11.8206 7.50157 0
      vertex -11.8206 -7.50157 0
    endloop
  endfacet
  facet normal 0 0 -1
    outer loop
      vertex -12.2683 -6.74455 0
      vertex -12.2683 6.74455 0
      vertex -11.8206 7.50157 0
    endloop
  endfacet
  facet normal 0 0 -1
    outer loop
      vertex -12.6676 -5.96091 0
      vertex -12.2683 6.74455 0
      vertex -12.2683 -6.74455 0
    endloop
  endfacet
  facet normal 0 0 -1
    outer loop
      vertex -12.6676 -5.96091 0
      vertex -12.6676 5.96091 0
      vertex -12.2683 6.74455 0
    endloop
  endfacet
  facet normal 0 0 -1
    outer loop
      vertex -13.0169 -5.15374 0
      vertex -12.6676 5.96091 0
      vertex -12.6676 -5.96091 0
    endloop
  endfacet
  facet normal 0 0 -1
    outer loop
      vertex -13.0169 -5.15374 0
      vertex -13.0169 5.15374 0
      vertex -12.6676 5.96091 0
    endloop
  endfacet
  facet normal 0 0 -1
    outer loop
      vertex -13.3148 -4.32624 0
      vertex -13.0169 5.15374 0
      vertex -13.0169 -5.15374 0
    endloop
  endfacet
  facet normal 0 0 -1
    outer loop
      vertex -13.3148 -4.32624 0
      vertex -13.3148 4.32624 0
      vertex -13.0169 5.15374 0
    endloop
  endfacet
  facet normal 0 0 -1
    outer loop
      vertex -13.5602 -3.48166 0
      vertex -13.3148 4.32624 0
      vertex -13.3148 -4.32624 0
    endloop
  endfacet
  facet normal 0 0 -1
    outer loop
      vertex -13.5602 -3.48166 0
      vertex -13.5602 3.48166 0
      vertex -13.3148 4.32624 0
    endloop
  endfacet
  facet normal 0 0 -1
    outer loop
      vertex -13.752 -2.62334 0
      vertex -13.5602 3.48166 0
      vertex -13.5602 -3.48166 0
    endloop
  endfacet
  facet normal 0 0 -1
    outer loop
      vertex -13.752 -2.62334 0
      vertex -13.752 2.62334 0
      vertex -13.5602 3.48166 0
    endloop
  endfacet
  facet normal 0 0 -1
    outer loop
      vertex -13.8896 -1.75466 0
      vertex -13.752 2.62334 0
      vertex -13.752 -2.62334 0
    endloop
  endfacet
  facet normal 0 0 -1
    outer loop
      vertex -13.8896 -1.75466 0
      vertex -13.8896 1.75466 0
      vertex -13.752 2.62334 0
    endloop
  endfacet
  facet normal 0 0 -1
    outer loop
      vertex -13.9724 -0.879066 0
      vertex -13.8896 1.75466 0
      vertex -13.8896 -1.75466 0
    endloop
  endfacet
  facet normal 0 0 -1
    outer loop
      vertex -13.9724 -0.879066 0
      vertex -13.9724 0.879066 0
      vertex -13.8896 1.75466 0
    endloop
  endfacet
  facet normal 0 -0 -1
    outer loop
      vertex -13.9724 0.879066 0
      vertex -13.9724 -0.879066 0
      vertex -14 0 0
    endloop
  endfacet
  facet normal -0.999507 0.0314111 0
    outer loop
      vertex -14 0 0
      vertex -13.9724 0.879066 14
      vertex -13.9724 0.879066 0
    endloop
  endfacet
  facet normal -0.999507 0.0314111 0
    outer loop
      vertex -13.9724 0.879066 14
      vertex -14 0 0
      vertex -14 0 14
    endloop
  endfacet
  facet normal -0.995562 0.0941084 0
    outer loop
      vertex -13.9724 0.879066 0
      vertex -13.8896 1.75466 14
      vertex -13.8896 1.75466 0
    endloop
  endfacet
  facet normal -0.995562 0.0941084 0
    outer loop
      vertex -13.8896 1.75466 14
      vertex -13.9724 0.879066 0
      vertex -13.9724 0.879066 14
    endloop
  endfacet
  facet normal -0.987688 0.156435 0
    outer loop
      vertex -13.8896 1.75466 0
      vertex -13.752 2.62334 14
      vertex -13.752 2.62334 0
    endloop
  endfacet
  facet normal -0.987688 0.156435 0
    outer loop
      vertex -13.752 2.62334 14
      vertex -13.8896 1.75466 0
      vertex -13.8896 1.75466 14
    endloop
  endfacet
  facet normal -0.975917 0.218143 0
    outer loop
      vertex -13.752 2.62334 0
      vertex -13.5602 3.48166 14
      vertex -13.5602 3.48166 0
    endloop
  endfacet
  facet normal -0.975917 0.218143 0
    outer loop
      vertex -13.5602 3.48166 14
      vertex -13.752 2.62334 0
      vertex -13.752 2.62334 14
    endloop
  endfacet
  facet normal -0.960294 0.278991 0
    outer loop
      vertex -13.5602 3.48166 0
      vertex -13.3148 4.32624 14
      vertex -13.3148 4.32624 0
    endloop
  endfacet
  facet normal -0.960294 0.278991 0
    outer loop
      vertex -13.3148 4.32624 14
      vertex -13.5602 3.48166 0
      vertex -13.5602 3.48166 14
    endloop
  endfacet
  facet normal -0.940881 0.338738 0
    outer loop
      vertex -13.3148 4.32624 0
      vertex -13.0169 5.15374 14
      vertex -13.0169 5.15374 0
    endloop
  endfacet
  facet normal -0.940881 0.338738 0
    outer loop
      vertex -13.0169 5.15374 14
      vertex -13.3148 4.32624 0
      vertex -13.3148 4.32624 14
    endloop
  endfacet
  facet normal -0.917755 0.397147 0
    outer loop
      vertex -13.0169 5.15374 0
      vertex -12.6676 5.96091 14
      vertex -12.6676 5.96091 0
    endloop
  endfacet
  facet normal -0.917755 0.397147 0
    outer loop
      vertex -12.6676 5.96091 14
      vertex -13.0169 5.15374 0
      vertex -13.0169 5.15374 14
    endloop
  endfacet
  facet normal -0.891006 0.453991 0
    outer loop
      vertex -12.6676 5.96091 0
      vertex -12.2683 6.74455 14
      vertex -12.2683 6.74455 0
    endloop
  endfacet
  facet normal -0.891006 0.453991 0
    outer loop
      vertex -12.2683 6.74455 14
      vertex -12.6676 5.96091 0
      vertex -12.6676 5.96091 14
    endloop
  endfacet
  facet normal -0.860742 0.509042 0
    outer loop
      vertex -12.2683 6.74455 0
      vertex -11.8206 7.50157 14
      vertex -11.8206 7.50157 0
    endloop
  endfacet
  facet normal -0.860742 0.509042 0
    outer loop
      vertex -11.8206 7.50157 14
      vertex -12.2683 6.74455 0
      vertex -12.2683 6.74455 14
    endloop
  endfacet
  facet normal -0.827081 0.562083 0
    outer loop
      vertex -11.8206 7.50157 0
      vertex -11.3262 8.22899 14
      vertex -11.3262 8.22899 0
    endloop
  endfacet
  facet normal -0.827081 0.562083 0
    outer loop
      vertex -11.3262 8.22899 14
      vertex -11.8206 7.50157 0
      vertex -11.8206 7.50157 14
    endloop
  endfacet
  facet normal -0.790154 0.612908 0
    outer loop
      vertex -11.3262 8.22899 0
      vertex -10.7872 8.92393 14
      vertex -10.7872 8.92393 0
    endloop
  endfacet
  facet normal -0.790154 0.612908 0
    outer loop
      vertex -10.7872 8.92393 14
      vertex -11.3262 8.22899 0
      vertex -11.3262 8.22899 14
    endloop
  endfacet
  facet normal -0.750112 0.661311 0
    outer loop
      vertex -10.7872 8.92393 0
      vertex -10.2056 9.58366 14
      vertex -10.2056 9.58366 0
    endloop
  endfacet
  facet normal -0.750112 0.661311 0
    outer loop
      vertex -10.2056 9.58366 14
      vertex -10.7872 8.92393 0
      vertex -10.7872 8.92393 14
    endloop
  endfacet
  facet normal -0.707107 0.707107 0
    outer loop
      vertex -10.2056 9.58366 0
      vertex -9.58366 10.2056 14
      vertex -9.58366 10.2056 0
    endloop
  endfacet
  facet normal -0.707107 0.707107 0
    outer loop
      vertex -9.58366 10.2056 14
      vertex -10.2056 9.58366 0
      vertex -10.2056 9.58366 14
    endloop
  endfacet
  facet normal -0.661311 0.750112 0
    outer loop
      vertex -8.92393 10.7872 0
      vertex -9.58366 10.2056 14
      vertex -8.92393 10.7872 14
    endloop
  endfacet
  facet normal -0.661311 0.750112 0
    outer loop
      vertex -9.58366 10.2056 14
      vertex -8.92393 10.7872 0
      vertex -9.58366 10.2056 0
    endloop
  endfacet
  facet normal -0.612908 0.790154 0
    outer loop
      vertex -8.22899 11.3262 0
      vertex -8.92393 10.7872 14
      vertex -8.22899 11.3262 14
    endloop
  endfacet
  facet normal -0.612908 0.790154 0
    outer loop
      vertex -8.92393 10.7872 14
      vertex -8.22899 11.3262 0
      vertex -8.92393 10.7872 0
    endloop
  endfacet
  facet normal -0.562083 0.827081 0
    outer loop
      vertex -7.50157 11.8206 0
      vertex -8.22899 11.3262 14
      vertex -7.50157 11.8206 14
    endloop
  endfacet
  facet normal -0.562083 0.827081 0
    outer loop
      vertex -8.22899 11.3262 14
      vertex -7.50157 11.8206 0
      vertex -8.22899 11.3262 0
    endloop
  endfacet
  facet normal -0.509042 0.860742 0
    outer loop
      vertex -6.74455 12.2683 0
      vertex -7.50157 11.8206 14
      vertex -6.74455 12.2683 14
    endloop
  endfacet
  facet normal -0.509042 0.860742 0
    outer loop
      vertex -7.50157 11.8206 14
      vertex -6.74455 12.2683 0
      vertex -7.50157 11.8206 0
    endloop
  endfacet
  facet normal -0.453991 0.891006 0
    outer loop
      vertex -5.96091 12.6676 0
      vertex -6.74455 12.2683 14
      vertex -5.96091 12.6676 14
    endloop
  endfacet
  facet normal -0.453991 0.891006 0
    outer loop
      vertex -6.74455 12.2683 14
      vertex -5.96091 12.6676 0
      vertex -6.74455 12.2683 0
    endloop
  endfacet
  facet normal -0.397147 0.917755 0
    outer loop
      vertex -5.15374 13.0169 0
      vertex -5.96091 12.6676 14
      vertex -5.15374 13.0169 14
    endloop
  endfacet
  facet normal -0.397147 0.917755 0
    outer loop
      vertex -5.96091 12.6676 14
      vertex -5.15374 13.0169 0
      vertex -5.96091 12.6676 0
    endloop
  endfacet
  facet normal -0.338738 0.940881 0
    outer loop
      vertex -4.32624 13.3148 0
      vertex -5.15374 13.0169 14
      vertex -4.32624 13.3148 14
    endloop
  endfacet
  facet normal -0.338738 0.940881 0
    outer loop
      vertex -5.15374 13.0169 14
      vertex -4.32624 13.3148 0
      vertex -5.15374 13.0169 0
    endloop
  endfacet
  facet normal -0.278991 0.960294 0
    outer loop
      vertex -3.48166 13.5602 0
      vertex -4.32624 13.3148 14
      vertex -3.48166 13.5602 14
    endloop
  endfacet
  facet normal -0.278991 0.960294 0
    outer loop
      vertex -4.32624 13.3148 14
      vertex -3.48166 13.5602 0
      vertex -4.32624 13.3148 0
    endloop
  endfacet
  facet normal -0.218143 0.975917 0
    outer loop
      vertex -2.62334 13.752 0
      vertex -3.48166 13.5602 14
      vertex -2.62334 13.752 14
    endloop
  endfacet
  facet normal -0.218143 0.975917 0
    outer loop
      vertex -3.48166 13.5602 14
      vertex -2.62334 13.752 0
      vertex -3.48166 13.5602 0
    endloop
  endfacet
  facet normal -0.156435 0.987688 0
    outer loop
      vertex -1.75466 13.8896 0
      vertex -2.62334 13.752 14
      vertex -1.75466 13.8896 14
    endloop
  endfacet
  facet normal -0.156435 0.987688 0
    outer loop
      vertex -2.62334 13.752 14
      vertex -1.75466 13.8896 0
      vertex -2.62334 13.752 0
    endloop
  endfacet
  facet normal -0.0941084 0.995562 0
    outer loop
      vertex -0.879066 13.9724 0
      vertex -1.75466 13.8896 14
      vertex -0.879066 13.9724 14
    endloop
  endfacet
  facet normal -0.0941084 0.995562 0
    outer loop
      vertex -1.75466 13.8896 14
      vertex -0.879066 13.9724 0
      vertex -1.75466 13.8896 0
    endloop
  endfacet
  facet normal -0.0314111 0.999507 0
    outer loop
      vertex 0 14 0
      vertex -0.879066 13.9724 14
      vertex 0 14 14
    endloop
  endfacet
  facet normal -0.0314111 0.999507 0
    outer loop
      vertex -0.879066 13.9724 14
      vertex 0 14 0
      vertex -0.879066 13.9724 0
    endloop
  endfacet
  facet normal -0.0314111 -0.999507 0
    outer loop
      vertex -0.879066 -13.9724 0
      vertex 0 -14 14
      vertex -0.879066 -13.9724 14
    endloop
  endfacet
  facet normal -0.0314111 -0.999507 -0
    outer loop
      vertex 0 -14 14
      vertex -0.879066 -13.9724 0
      vertex 0 -14 0
    endloop
  endfacet
  facet normal -0.0941084 -0.995562 0
    outer loop
      vertex -1.75466 -13.8896 0
      vertex -0.879066 -13.9724 14
      vertex -1.75466 -13.8896 14
    endloop
  endfacet
  facet normal -0.0941084 -0.995562 -0
    outer loop
      vertex -0.879066 -13.9724 14
      vertex -1.75466 -13.8896 0
      vertex -0.879066 -13.9724 0
    endloop
  endfacet
  facet normal -0.156435 -0.987688 0
    outer loop
      vertex -2.62334 -13.752 0
      vertex -1.75466 -13.8896 14
      vertex -2.62334 -13.752 14
    endloop
  endfacet
  facet normal -0.156435 -0.987688 -0
    outer loop
      vertex -1.75466 -13.8896 14
      vertex -2.62334 -13.752 0
      vertex -1.75466 -13.8896 0
    endloop
  endfacet
  facet normal -0.218143 -0.975917 0
    outer loop
      vertex -3.48166 -13.5602 0
      vertex -2.62334 -13.752 14
      vertex -3.48166 -13.5602 14
    endloop
  endfacet
  facet normal -0.218143 -0.975917 -0
    outer loop
      vertex -2.62334 -13.752 14
      vertex -3.48166 -13.5602 0
      vertex -2.62334 -13.752 0
    endloop
  endfacet
  facet normal -0.278991 -0.960294 0
    outer loop
      vertex -4.32624 -13.3148 0
      vertex -3.48166 -13.5602 14
      vertex -4.32624 -13.3148 14
    endloop
  endfacet
  facet normal -0.278991 -0.960294 -0
    outer loop
      vertex -3.48166 -13.5602 14
      vertex -4.32624 -13.3148 0
      vertex -3.48166 -13.5602 0
    endloop
  endfacet
  facet normal -0.338738 -0.940881 0
    outer loop
      vertex -5.15374 -13.0169 0
      vertex -4.32624 -13.3148 14
      vertex -5.15374 -13.0169 14
    endloop
  endfacet
  facet normal -0.338738 -0.940881 -0
    outer loop
      vertex -4.32624 -13.3148 14
      vertex -5.15374 -13.0169 0
      vertex -4.32624 -13.3148 0
    endloop
  endfacet
  facet normal -0.397147 -0.917755 0
    outer loop
      vertex -5.96091 -12.6676 0
      vertex -5.15374 -13.0169 14
      vertex -5.96091 -12.6676 14
    endloop
  endfacet
  facet normal -0.397147 -0.917755 -0
    outer loop
      vertex -5.15374 -13.0169 14
      vertex -5.96091 -12.6676 0
      vertex -5.15374 -13.0169 0
    endloop
  endfacet
  facet normal -0.453991 -0.891006 0
    outer loop
      vertex -6.74455 -12.2683 0
      vertex -5.96091 -12.6676 14
      vertex -6.74455 -12.2683 14
    endloop
  endfacet
  facet normal -0.453991 -0.891006 -0
    outer loop
      vertex -5.96091 -12.6676 14
      vertex -6.74455 -12.2683 0
      vertex -5.96091 -12.6676 0
    endloop
  endfacet
  facet normal -0.509042 -0.860742 0
    outer loop
      vertex -7.50157 -11.8206 0
      vertex -6.74455 -12.2683 14
      vertex -7.50157 -11.8206 14
    endloop
  endfacet
  facet normal -0.509042 -0.860742 -0
    outer loop
      vertex -6.74455 -12.2683 14
      vertex -7.50157 -11.8206 0
      vertex -6.74455 -12.2683 0
    endloop
  endfacet
  facet normal -0.562083 -0.827081 0
    outer loop
      vertex -8.22899 -11.3262 0
      vertex -7.50157 -11.8206 14
      vertex -8.22899 -11.3262 14
    endloop
  endfacet
  facet normal -0.562083 -0.827081 -0
    outer loop
      vertex -7.50157 -11.8206 14
      vertex -8.22899 -11.3262 0
      vertex -7.50157 -11.8206 0
    endloop
  endfacet
  facet normal -0.612908 -0.790154 0
    outer loop
      vertex -8.92393 -10.7872 0
      vertex -8.22899 -11.3262 14
      vertex -8.92393 -10.7872 14
    endloop
  endfacet
  facet normal -0.612908 -0.790154 -0
    outer loop
      vertex -8.22899 -11.3262 14
      vertex -8.92393 -10.7872 0
      vertex -8.22899 -11.3262 0
    endloop
  endfacet
  facet normal -0.661311 -0.750112 0
    outer loop
      vertex -9.58366 -10.2056 0
      vertex -8.92393 -10.7872 14
      vertex -9.58366 -10.2056 14
    endloop
  endfacet
  facet normal -0.661311 -0.750112 -0
    outer loop
      vertex -8.92393 -10.7872 14
      vertex -9.58366 -10.2056 0
      vertex -8.92393 -10.7872 0
    endloop
  endfacet
  facet normal -0.707107 -0.707107 0
    outer loop
      vertex -9.58366 -10.2056 0
      vertex -10.2056 -9.58366 14
      vertex -10.2056 -9.58366 0
    endloop
  endfacet
  facet normal -0.707107 -0.707107 0
    outer loop
      vertex -10.2056 -9.58366 14
      vertex -9.58366 -10.2056 0
      vertex -9.58366 -10.2056 14
    endloop
  endfacet
  facet normal -0.750112 -0.661311 0
    outer loop
      vertex -10.2056 -9.58366 0
      vertex -10.7872 -8.92393 14
      vertex -10.7872 -8.92393 0
    endloop
  endfacet
  facet normal -0.750112 -0.661311 0
    outer loop
      vertex -10.7872 -8.92393 14
      vertex -10.2056 -9.58366 0
      vertex -10.2056 -9.58366 14
    endloop
  endfacet
  facet normal -0.790154 -0.612908 0
    outer loop
      vertex -10.7872 -8.92393 0
      vertex -11.3262 -8.22899 14
      vertex -11.3262 -8.22899 0
    endloop
  endfacet
  facet normal -0.790154 -0.612908 0
    outer loop
      vertex -11.3262 -8.22899 14
      vertex -10.7872 -8.92393 0
      vertex -10.7872 -8.92393 14
    endloop
  endfacet
  facet normal -0.827081 -0.562083 0
    outer loop
      vertex -11.3262 -8.22899 0
      vertex -11.8206 -7.50157 14
      vertex -11.8206 -7.50157 0
    endloop
  endfacet
  facet normal -0.827081 -0.562083 0
    outer loop
      vertex -11.8206 -7.50157 14
      vertex -11.3262 -8.22899 0
      vertex -11.3262 -8.22899 14
    endloop
  endfacet
  facet normal -0.860742 -0.509042 0
    outer loop
      vertex -11.8206 -7.50157 0
      vertex -12.2683 -6.74455 14
      vertex -12.2683 -6.74455 0
    endloop
  endfacet
  facet normal -0.860742 -0.509042 0
    outer loop
      vertex -12.2683 -6.74455 14
      vertex -11.8206 -7.50157 0
      vertex -11.8206 -7.50157 14
    endloop
  endfacet
  facet normal -0.891006 -0.453991 0
    outer loop
      vertex -12.2683 -6.74455 0
      vertex -12.6676 -5.96091 14
      vertex -12.6676 -5.96091 0
    endloop
  endfacet
  facet normal -0.891006 -0.453991 0
    outer loop
      vertex -12.6676 -5.96091 14
      vertex -12.2683 -6.74455 0
      vertex -12.2683 -6.74455 14
    endloop
  endfacet
  facet normal -0.917755 -0.397147 0
    outer loop
      vertex -12.6676 -5.96091 0
      vertex -13.0169 -5.15374 14
      vertex -13.0169 -5.15374 0
    endloop
  endfacet
  facet normal -0.917755 -0.397147 0
    outer loop
      vertex -13.0169 -5.15374 14
      vertex -12.6676 -5.96091 0
      vertex -12.6676 -5.96091 14
    endloop
  endfacet
  facet normal -0.940881 -0.338738 0
    outer loop
      vertex -13.0169 -5.15374 0
      vertex -13.3148 -4.32624 14
      vertex -13.3148 -4.32624 0
    endloop
  endfacet
  facet normal -0.940881 -0.338738 0
    outer loop
      vertex -13.3148 -4.32624 14
      vertex -13.0169 -5.15374 0
      vertex -13.0169 -5.15374 14
    endloop
  endfacet
  facet normal -0.960294 -0.278991 0
    outer loop
      vertex -13.3148 -4.32624 0
      vertex -13.5602 -3.48166 14
      vertex -13.5602 -3.48166 0
    endloop
  endfacet
  facet normal -0.960294 -0.278991 0
    outer loop
      vertex -13.5602 -3.48166 14
      vertex -13.3148 -4.32624 0
      vertex -13.3148 -4.32624 14
    endloop
  endfacet
  facet normal -0.975917 -0.218143 0
    outer loop
      vertex -13.5602 -3.48166 0
      vertex -13.752 -2.62334 14
      vertex -13.752 -2.62334 0
    endloop
  endfacet
  facet normal -0.975917 -0.218143 0
    outer loop
      vertex -13.752 -2.62334 14
      vertex -13.5602 -3.48166 0
      vertex -13.5602 -3.48166 14
    endloop
  endfacet
  facet normal -0.987688 -0.156435 0
    outer loop
      vertex -13.752 -2.62334 0
      vertex -13.8896 -1.75466 14
      vertex -13.8896 -1.75466 0
    endloop
  endfacet
  facet normal -0.987688 -0.156435 0
    outer loop
      vertex -13.8896 -1.75466 14
      vertex -13.752 -2.62334 0
      vertex -13.752 -2.62334 14
    endloop
  endfacet
  facet normal -0.995562 -0.0941084 0
    outer loop
      vertex -13.8896 -1.75466 0
      vertex -13.9724 -0.879066 14
      vertex -13.9724 -0.879066 0
    endloop
  endfacet
  facet normal -0.995562 -0.0941084 0
    outer loop
      vertex -13.9724 -0.879066 14
      vertex -13.8896 -1.75466 0
      vertex -13.8896 -1.75466 14
    endloop
  endfacet
  facet normal -0.999507 -0.0314111 0
    outer loop
      vertex -13.9724 -0.879066 0
      vertex -14 0 14
      vertex -14 0 0
    endloop
  endfacet
  facet normal -0.999507 -0.0314111 0
    outer loop
      vertex -14 0 14
      vertex -13.9724 -0.879066 0
      vertex -13.9724 -0.879066 14
    endloop
  endfacet
  facet normal -0.999507 0.0314111 0
    outer loop
      vertex -3.5 0 3.5
      vertex -3.49309 0.219767 10.5
      vertex -3.49309 0.219767 3.5
    endloop
  endfacet
  facet normal -0.999507 0.0314111 0
    outer loop
      vertex -3.49309 0.219767 10.5
      vertex -3.5 0 3.5
      vertex -3.5 0 10.5
    endloop
  endfacet
  facet normal 0.999507 -0.0314111 0
    outer loop
      vertex -10.5 0 10.5
      vertex -10.4793 0.6593 3.5
      vertex -10.4793 0.6593 10.5
    endloop
  endfacet
  facet normal 0.999507 -0.0314111 0
    outer loop
      vertex -10.4793 0.6593 3.5
      vertex -10.5 0 10.5
      vertex -10.5 0 3.5
    endloop
  endfacet
  facet normal -0 0 1
    outer loop
      vertex -3.24468 9.98609 3.5
      vertex -2.8 2.09793 3.5
      vertex -2.8 10.1153 3.5
    endloop
  endfacet
  facet normal -0 0 1
    outer loop
      vertex -3.86531 9.76265 3.5
      vertex -2.8 2.09793 3.5
      vertex -3.24468 9.98609 3.5
    endloop
  endfacet
  facet normal -0 0 1
    outer loop
      vertex -4.47068 9.50068 3.5
      vertex -2.8 2.09793 3.5
      vertex -3.86531 9.76265 3.5
    endloop
  endfacet
  facet normal -0 0 1
    outer loop
      vertex -5.05841 9.20122 3.5
      vertex -2.8 2.09793 3.5
      vertex -4.47068 9.50068 3.5
    endloop
  endfacet
  facet normal -0 0 1
    outer loop
      vertex -5.62618 8.86544 3.5
      vertex -2.8 2.09793 3.5
      vertex -5.05841 9.20122 3.5
    endloop
  endfacet
  facet normal -0 0 1
    outer loop
      vertex -6.17174 8.49468 3.5
      vertex -2.8 2.09793 3.5
      vertex -5.62618 8.86544 3.5
    endloop
  endfacet
  facet normal -0 0 1
    outer loop
      vertex -6.69295 8.09039 3.5
      vertex -2.8 2.09793 3.5
      vertex -6.17174 8.49468 3.5
    endloop
  endfacet
  facet normal -0 0 1
    outer loop
      vertex -7.18774 7.65417 3.5
      vertex -2.8 2.09793 3.5
      vertex -6.69295 8.09039 3.5
    endloop
  endfacet
  facet normal -0 0 1
    outer loop
      vertex -7.65417 7.18774 3.5
      vertex -2.8 2.09793 3.5
      vertex -7.18774 7.65417 3.5
    endloop
  endfacet
  facet normal -0 0 1
    outer loop
      vertex -8.09039 6.69295 3.5
      vertex -2.8 2.09793 3.5
      vertex -7.65417 7.18774 3.5
    endloop
  endfacet
  facet normal -0 0 1
    outer loop
      vertex -8.49468 6.17174 3.5
      vertex -2.8 2.09793 3.5
      vertex -8.09039 6.69295 3.5
    endloop
  endfacet
  facet normal 0 0 1
    outer loop
      vertex -2.8 2.09793 3.5
      vertex -8.49468 6.17174 3.5
      vertex -2.83156 2.05725 3.5
    endloop
  endfacet
  facet normal 0 0 1
    outer loop
      vertex -2.83156 2.05725 3.5
      vertex -8.49468 6.17174 3.5
      vertex -2.95515 1.87539 3.5
    endloop
  endfacet
  facet normal 0 0 1
    outer loop
      vertex -8.49468 -6.17174 3.5
      vertex -2.8 -2.09793 3.5
      vertex -2.83156 -2.05725 3.5
    endloop
  endfacet
  facet normal 0 0 1
    outer loop
      vertex -8.49468 -6.17174 3.5
      vertex -2.83156 -2.05725 3.5
      vertex -2.95515 -1.87539 3.5
    endloop
  endfacet
  facet normal 0 0 1
    outer loop
      vertex -8.86544 -5.62618 3.5
      vertex -2.95515 -1.87539 3.5
      vertex -3.06707 -1.68614 3.5
    endloop
  endfacet
  facet normal 0 0 1
    outer loop
      vertex -9.20122 -5.05841 3.5
      vertex -3.06707 -1.68614 3.5
      vertex -3.16689 -1.49023 3.5
    endloop
  endfacet
  facet normal 0 0 1
    outer loop
      vertex -2.8 -2.09793 3.5
      vertex -3.24468 -9.98609 3.5
      vertex -2.8 -10.1153 3.5
    endloop
  endfacet
  facet normal 0 0 1
    outer loop
      vertex -9.50068 -4.47068 3.5
      vertex -3.16689 -1.49023 3.5
      vertex -3.25422 -1.28843 3.5
    endloop
  endfacet
  facet normal 0 0 1
    outer loop
      vertex -9.76265 -3.86531 3.5
      vertex -3.25422 -1.28843 3.5
      vertex -3.3287 -1.08156 3.5
    endloop
  endfacet
  facet normal 0 0 1
    outer loop
      vertex -9.98609 -3.24468 3.5
      vertex -3.3287 -1.08156 3.5
      vertex -3.39004 -0.870414 3.5
    endloop
  endfacet
  facet normal 0 0 1
    outer loop
      vertex -10.1701 -2.61124 3.5
      vertex -3.39004 -0.870414 3.5
      vertex -3.438 -0.655834 3.5
    endloop
  endfacet
  facet normal 0 0 1
    outer loop
      vertex -10.314 -1.9675 3.5
      vertex -3.438 -0.655834 3.5
      vertex -3.4724 -0.438665 3.5
    endloop
  endfacet
  facet normal 0 0 1
    outer loop
      vertex -10.4172 -1.316 3.5
      vertex -3.4724 -0.438665 3.5
      vertex -3.49309 -0.219767 3.5
    endloop
  endfacet
  facet normal 0 0 1
    outer loop
      vertex -10.4793 -0.6593 3.5
      vertex -3.49309 -0.219767 3.5
      vertex -3.5 0 3.5
    endloop
  endfacet
  facet normal -0 0 1
    outer loop
      vertex -8.86544 5.62618 3.5
      vertex -2.95515 1.87539 3.5
      vertex -8.49468 6.17174 3.5
    endloop
  endfacet
  facet normal 0 0 1
    outer loop
      vertex -2.8 -2.09793 3.5
      vertex -3.86531 -9.76265 3.5
      vertex -3.24468 -9.98609 3.5
    endloop
  endfacet
  facet normal 0 0 1
    outer loop
      vertex -2.95515 1.87539 3.5
      vertex -8.86544 5.62618 3.5
      vertex -3.06707 1.68614 3.5
    endloop
  endfacet
  facet normal 0 0 1
    outer loop
      vertex -2.8 -2.09793 3.5
      vertex -4.47068 -9.50068 3.5
      vertex -3.86531 -9.76265 3.5
    endloop
  endfacet
  facet normal -0 0 1
    outer loop
      vertex -9.20122 5.05841 3.5
      vertex -3.06707 1.68614 3.5
      vertex -8.86544 5.62618 3.5
    endloop
  endfacet
  facet normal 0 0 1
    outer loop
      vertex -2.8 -2.09793 3.5
      vertex -5.05841 -9.20122 3.5
      vertex -4.47068 -9.50068 3.5
    endloop
  endfacet
  facet normal 0 0 1
    outer loop
      vertex -3.06707 1.68614 3.5
      vertex -9.20122 5.05841 3.5
      vertex -3.16689 1.49023 3.5
    endloop
  endfacet
  facet normal 0 0 1
    outer loop
      vertex -2.8 -2.09793 3.5
      vertex -5.62618 -8.86544 3.5
      vertex -5.05841 -9.20122 3.5
    endloop
  endfacet
  facet normal -0 0 1
    outer loop
      vertex -9.50068 4.47068 3.5
      vertex -3.16689 1.49023 3.5
      vertex -9.20122 5.05841 3.5
    endloop
  endfacet
  facet normal 0 0 1
    outer loop
      vertex -2.8 -2.09793 3.5
      vertex -6.17174 -8.49468 3.5
      vertex -5.62618 -8.86544 3.5
    endloop
  endfacet
  facet normal 0 0 1
    outer loop
      vertex -3.16689 1.49023 3.5
      vertex -9.50068 4.47068 3.5
      vertex -3.25422 1.28843 3.5
    endloop
  endfacet
  facet normal 0 0 1
    outer loop
      vertex -2.8 -2.09793 3.5
      vertex -6.69295 -8.09039 3.5
      vertex -6.17174 -8.49468 3.5
    endloop
  endfacet
  facet normal -0 0 1
    outer loop
      vertex -9.76265 3.86531 3.5
      vertex -3.25422 1.28843 3.5
      vertex -9.50068 4.47068 3.5
    endloop
  endfacet
  facet normal 0 0 1
    outer loop
      vertex -2.8 -2.09793 3.5
      vertex -7.18774 -7.65417 3.5
      vertex -6.69295 -8.09039 3.5
    endloop
  endfacet
  facet normal 0 0 1
    outer loop
      vertex -3.25422 1.28843 3.5
      vertex -9.76265 3.86531 3.5
      vertex -3.3287 1.08156 3.5
    endloop
  endfacet
  facet normal 0 0 1
    outer loop
      vertex -2.8 -2.09793 3.5
      vertex -7.65417 -7.18774 3.5
      vertex -7.18774 -7.65417 3.5
    endloop
  endfacet
  facet normal -0 0 1
    outer loop
      vertex -9.98609 3.24468 3.5
      vertex -3.3287 1.08156 3.5
      vertex -9.76265 3.86531 3.5
    endloop
  endfacet
  facet normal 0 0 1
    outer loop
      vertex -2.8 -2.09793 3.5
      vertex -8.09039 -6.69295 3.5
      vertex -7.65417 -7.18774 3.5
    endloop
  endfacet
  facet normal 0 0 1
    outer loop
      vertex -3.3287 1.08156 3.5
      vertex -9.98609 3.24468 3.5
      vertex -3.39004 0.870414 3.5
    endloop
  endfacet
  facet normal 0 0 1
    outer loop
      vertex -2.8 -2.09793 3.5
      vertex -8.49468 -6.17174 3.5
      vertex -8.09039 -6.69295 3.5
    endloop
  endfacet
  facet normal -0 0 1
    outer loop
      vertex -10.1701 2.61124 3.5
      vertex -3.39004 0.870414 3.5
      vertex -9.98609 3.24468 3.5
    endloop
  endfacet
  facet normal 0 0 1
    outer loop
      vertex -2.95515 -1.87539 3.5
      vertex -8.86544 -5.62618 3.5
      vertex -8.49468 -6.17174 3.5
    endloop
  endfacet
  facet normal 0 0 1
    outer loop
      vertex -3.39004 0.870414 3.5
      vertex -10.1701 2.61124 3.5
      vertex -3.438 0.655834 3.5
    endloop
  endfacet
  facet normal 0 0 1
    outer loop
      vertex -3.06707 -1.68614 3.5
      vertex -9.20122 -5.05841 3.5
      vertex -8.86544 -5.62618 3.5
    endloop
  endfacet
  facet normal -0 0 1
    outer loop
      vertex -10.314 1.9675 3.5
      vertex -3.438 0.655834 3.5
      vertex -10.1701 2.61124 3.5
    endloop
  endfacet
  facet normal 0 0 1
    outer loop
      vertex -3.16689 -1.49023 3.5
      vertex -9.50068 -4.47068 3.5
      vertex -9.20122 -5.05841 3.5
    endloop
  endfacet
  facet normal 0 0 1
    outer loop
      vertex -3.438 0.655834 3.5
      vertex -10.314 1.9675 3.5
      vertex -3.4724 0.438665 3.5
    endloop
  endfacet
  facet normal 0 0 1
    outer loop
      vertex -3.25422 -1.28843 3.5
      vertex -9.76265 -3.86531 3.5
      vertex -9.50068 -4.47068 3.5
    endloop
  endfacet
  facet normal -0 0 1
    outer loop
      vertex -10.4172 1.316 3.5
      vertex -3.4724 0.438665 3.5
      vertex -10.314 1.9675 3.5
    endloop
  endfacet
  facet normal 0 0 1
    outer loop
      vertex -3.3287 -1.08156 3.5
      vertex -9.98609 -3.24468 3.5
      vertex -9.76265 -3.86531 3.5
    endloop
  endfacet
  facet normal 0 0 1
    outer loop
      vertex -3.4724 0.438665 3.5
      vertex -10.4172 1.316 3.5
      vertex -3.49309 0.219767 3.5
    endloop
  endfacet
  facet normal 0 0 1
    outer loop
      vertex -3.39004 -0.870414 3.5
      vertex -10.1701 -2.61124 3.5
      vertex -9.98609 -3.24468 3.5
    endloop
  endfacet
  facet normal -0 0 1
    outer loop
      vertex -10.4793 0.6593 3.5
      vertex -3.49309 0.219767 3.5
      vertex -10.4172 1.316 3.5
    endloop
  endfacet
  facet normal 0 0 1
    outer loop
      vertex -3.438 -0.655834 3.5
      vertex -10.314 -1.9675 3.5
      vertex -10.1701 -2.61124 3.5
    endloop
  endfacet
  facet normal 0 0 1
    outer loop
      vertex -3.49309 0.219767 3.5
      vertex -10.4793 0.6593 3.5
      vertex -3.5 0 3.5
    endloop
  endfacet
  facet normal 0 0 1
    outer loop
      vertex -3.4724 -0.438665 3.5
      vertex -10.4172 -1.316 3.5
      vertex -10.314 -1.9675 3.5
    endloop
  endfacet
  facet normal 0 0 1
    outer loop
      vertex -10.5 0 3.5
      vertex -3.5 0 3.5
      vertex -10.4793 0.6593 3.5
    endloop
  endfacet
  facet normal 0 0 1
    outer loop
      vertex -3.49309 -0.219767 3.5
      vertex -10.4793 -0.6593 3.5
      vertex -10.4172 -1.316 3.5
    endloop
  endfacet
  facet normal 0 0 1
    outer loop
      vertex -3.5 0 3.5
      vertex -10.5 0 3.5
      vertex -10.4793 -0.6593 3.5
    endloop
  endfacet
  facet normal -0.995562 0.0941119 0
    outer loop
      vertex -3.49309 0.219767 3.5
      vertex -3.4724 0.438665 10.5
      vertex -3.4724 0.438665 3.5
    endloop
  endfacet
  facet normal -0.995562 0.0941119 0
    outer loop
      vertex -3.4724 0.438665 10.5
      vertex -3.49309 0.219767 3.5
      vertex -3.49309 0.219767 10.5
    endloop
  endfacet
  facet normal 0.995562 -0.0941088 0
    outer loop
      vertex -10.4793 0.6593 10.5
      vertex -10.4172 1.316 3.5
      vertex -10.4172 1.316 10.5
    endloop
  endfacet
  facet normal 0.995562 -0.0941088 0
    outer loop
      vertex -10.4172 1.316 3.5
      vertex -10.4793 0.6593 10.5
      vertex -10.4793 0.6593 3.5
    endloop
  endfacet
  facet normal -0.987688 0.156435 0
    outer loop
      vertex -3.4724 0.438665 3.5
      vertex -3.438 0.655834 10.5
      vertex -3.438 0.655834 3.5
    endloop
  endfacet
  facet normal -0.987688 0.156435 0
    outer loop
      vertex -3.438 0.655834 10.5
      vertex -3.4724 0.438665 3.5
      vertex -3.4724 0.438665 10.5
    endloop
  endfacet
  facet normal 0.987688 -0.156435 0
    outer loop
      vertex -10.4172 1.316 10.5
      vertex -10.314 1.9675 3.5
      vertex -10.314 1.9675 10.5
    endloop
  endfacet
  facet normal 0.987688 -0.156435 0
    outer loop
      vertex -10.314 1.9675 3.5
      vertex -10.4172 1.316 10.5
      vertex -10.4172 1.316 3.5
    endloop
  endfacet
  facet normal -0.975917 0.218143 0
    outer loop
      vertex -3.438 0.655834 3.5
      vertex -3.39004 0.870414 10.5
      vertex -3.39004 0.870414 3.5
    endloop
  endfacet
  facet normal -0.975917 0.218143 0
    outer loop
      vertex -3.39004 0.870414 10.5
      vertex -3.438 0.655834 3.5
      vertex -3.438 0.655834 10.5
    endloop
  endfacet
  facet normal 0.975917 -0.218142 0
    outer loop
      vertex -10.314 1.9675 10.5
      vertex -10.1701 2.61124 3.5
      vertex -10.1701 2.61124 10.5
    endloop
  endfacet
  facet normal 0.975917 -0.218142 0
    outer loop
      vertex -10.1701 2.61124 3.5
      vertex -10.314 1.9675 10.5
      vertex -10.314 1.9675 3.5
    endloop
  endfacet
  facet normal -0.960294 0.27899 0
    outer loop
      vertex -3.39004 0.870414 3.5
      vertex -3.3287 1.08156 10.5
      vertex -3.3287 1.08156 3.5
    endloop
  endfacet
  facet normal -0.960294 0.27899 0
    outer loop
      vertex -3.3287 1.08156 10.5
      vertex -3.39004 0.870414 3.5
      vertex -3.39004 0.870414 10.5
    endloop
  endfacet
  facet normal 0.960293 -0.278992 0
    outer loop
      vertex -10.1701 2.61124 10.5
      vertex -9.98609 3.24468 3.5
      vertex -9.98609 3.24468 10.5
    endloop
  endfacet
  facet normal 0.960293 -0.278992 0
    outer loop
      vertex -9.98609 3.24468 3.5
      vertex -10.1701 2.61124 10.5
      vertex -10.1701 2.61124 3.5
    endloop
  endfacet
  facet normal -0.940881 0.338739 0
    outer loop
      vertex -3.3287 1.08156 3.5
      vertex -3.25422 1.28843 10.5
      vertex -3.25422 1.28843 3.5
    endloop
  endfacet
  facet normal -0.940881 0.338739 0
    outer loop
      vertex -3.25422 1.28843 10.5
      vertex -3.3287 1.08156 3.5
      vertex -3.3287 1.08156 10.5
    endloop
  endfacet
  facet normal 0.940881 -0.338738 0
    outer loop
      vertex -9.98609 3.24468 10.5
      vertex -9.76265 3.86531 3.5
      vertex -9.76265 3.86531 10.5
    endloop
  endfacet
  facet normal 0.940881 -0.338738 0
    outer loop
      vertex -9.76265 3.86531 3.5
      vertex -9.98609 3.24468 10.5
      vertex -9.98609 3.24468 3.5
    endloop
  endfacet
  facet normal -0.917754 0.397148 0
    outer loop
      vertex -3.25422 1.28843 3.5
      vertex -3.16689 1.49023 10.5
      vertex -3.16689 1.49023 3.5
    endloop
  endfacet
  facet normal -0.917754 0.397148 0
    outer loop
      vertex -3.16689 1.49023 10.5
      vertex -3.25422 1.28843 3.5
      vertex -3.25422 1.28843 10.5
    endloop
  endfacet
  facet normal 0.917755 -0.397147 0
    outer loop
      vertex -9.76265 3.86531 10.5
      vertex -9.50068 4.47068 3.5
      vertex -9.50068 4.47068 10.5
    endloop
  endfacet
  facet normal 0.917755 -0.397147 0
    outer loop
      vertex -9.50068 4.47068 3.5
      vertex -9.76265 3.86531 10.5
      vertex -9.76265 3.86531 3.5
    endloop
  endfacet
  facet normal -0.891007 0.45399 0
    outer loop
      vertex -3.16689 1.49023 3.5
      vertex -3.06707 1.68614 10.5
      vertex -3.06707 1.68614 3.5
    endloop
  endfacet
  facet normal -0.891007 0.45399 0
    outer loop
      vertex -3.06707 1.68614 10.5
      vertex -3.16689 1.49023 3.5
      vertex -3.16689 1.49023 10.5
    endloop
  endfacet
  facet normal 0.891006 -0.453991 0
    outer loop
      vertex -9.50068 4.47068 10.5
      vertex -9.20122 5.05841 3.5
      vertex -9.20122 5.05841 10.5
    endloop
  endfacet
  facet normal 0.891006 -0.453991 0
    outer loop
      vertex -9.20122 5.05841 3.5
      vertex -9.50068 4.47068 10.5
      vertex -9.50068 4.47068 3.5
    endloop
  endfacet
  facet normal -0.860741 0.509043 0
    outer loop
      vertex -3.06707 1.68614 3.5
      vertex -2.95515 1.87539 10.5
      vertex -2.95515 1.87539 3.5
    endloop
  endfacet
  facet normal -0.860741 0.509043 0
    outer loop
      vertex -2.95515 1.87539 10.5
      vertex -3.06707 1.68614 3.5
      vertex -3.06707 1.68614 10.5
    endloop
  endfacet
  facet normal 0.860742 -0.509042 0
    outer loop
      vertex -9.20122 5.05841 10.5
      vertex -8.86544 5.62618 3.5
      vertex -8.86544 5.62618 10.5
    endloop
  endfacet
  facet normal 0.860742 -0.509042 0
    outer loop
      vertex -8.86544 5.62618 3.5
      vertex -9.20122 5.05841 10.5
      vertex -9.20122 5.05841 3.5
    endloop
  endfacet
  facet normal -0.827083 0.56208 0
    outer loop
      vertex -2.95515 1.87539 3.5
      vertex -2.83156 2.05725 10.5
      vertex -2.83156 2.05725 3.5
    endloop
  endfacet
  facet normal -0.827083 0.56208 0
    outer loop
      vertex -2.83156 2.05725 10.5
      vertex -2.95515 1.87539 3.5
      vertex -2.95515 1.87539 10.5
    endloop
  endfacet
  facet normal 0.827081 -0.562083 0
    outer loop
      vertex -8.86544 5.62618 10.5
      vertex -8.49468 6.17174 3.5
      vertex -8.49468 6.17174 10.5
    endloop
  endfacet
  facet normal 0.827081 -0.562083 0
    outer loop
      vertex -8.49468 6.17174 3.5
      vertex -8.86544 5.62618 10.5
      vertex -8.86544 5.62618 3.5
    endloop
  endfacet
  facet normal -0.790153 0.612909 0
    outer loop
      vertex -2.83156 2.05725 3.5
      vertex -2.8 2.09793 10.5
      vertex -2.8 2.09793 3.5
    endloop
  endfacet
  facet normal -0.790153 0.612909 0
    outer loop
      vertex -2.8 2.09793 10.5
      vertex -2.83156 2.05725 3.5
      vertex -2.83156 2.05725 10.5
    endloop
  endfacet
  facet normal 0.790155 -0.612907 0
    outer loop
      vertex -8.49468 6.17174 10.5
      vertex -8.09039 6.69295 3.5
      vertex -8.09039 6.69295 10.5
    endloop
  endfacet
  facet normal 0.790155 -0.612907 0
    outer loop
      vertex -8.09039 6.69295 3.5
      vertex -8.49468 6.17174 10.5
      vertex -8.49468 6.17174 3.5
    endloop
  endfacet
  facet normal 0.750111 -0.661312 0
    outer loop
      vertex -8.09039 6.69295 10.5
      vertex -7.65417 7.18774 3.5
      vertex -7.65417 7.18774 10.5
    endloop
  endfacet
  facet normal 0.750111 -0.661312 0
    outer loop
      vertex -7.65417 7.18774 3.5
      vertex -8.09039 6.69295 10.5
      vertex -8.09039 6.69295 3.5
    endloop
  endfacet
  facet normal 0.707107 -0.707107 0
    outer loop
      vertex -7.65417 7.18774 10.5
      vertex -7.18774 7.65417 3.5
      vertex -7.18774 7.65417 10.5
    endloop
  endfacet
  facet normal 0.707107 -0.707107 0
    outer loop
      vertex -7.18774 7.65417 3.5
      vertex -7.65417 7.18774 10.5
      vertex -7.65417 7.18774 3.5
    endloop
  endfacet
  facet normal 0.661312 -0.750111 0
    outer loop
      vertex -7.18774 7.65417 3.5
      vertex -6.69295 8.09039 10.5
      vertex -7.18774 7.65417 10.5
    endloop
  endfacet
  facet normal 0.661312 -0.750111 0
    outer loop
      vertex -6.69295 8.09039 10.5
      vertex -7.18774 7.65417 3.5
      vertex -6.69295 8.09039 3.5
    endloop
  endfacet
  facet normal 0.612907 -0.790155 0
    outer loop
      vertex -6.69295 8.09039 3.5
      vertex -6.17174 8.49468 10.5
      vertex -6.69295 8.09039 10.5
    endloop
  endfacet
  facet normal 0.612907 -0.790155 0
    outer loop
      vertex -6.17174 8.49468 10.5
      vertex -6.69295 8.09039 3.5
      vertex -6.17174 8.49468 3.5
    endloop
  endfacet
  facet normal 0.562083 -0.827081 0
    outer loop
      vertex -6.17174 8.49468 3.5
      vertex -5.62618 8.86544 10.5
      vertex -6.17174 8.49468 10.5
    endloop
  endfacet
  facet normal 0.562083 -0.827081 0
    outer loop
      vertex -5.62618 8.86544 10.5
      vertex -6.17174 8.49468 3.5
      vertex -5.62618 8.86544 3.5
    endloop
  endfacet
  facet normal 0.509042 -0.860742 0
    outer loop
      vertex -5.62618 8.86544 3.5
      vertex -5.05841 9.20122 10.5
      vertex -5.62618 8.86544 10.5
    endloop
  endfacet
  facet normal 0.509042 -0.860742 0
    outer loop
      vertex -5.05841 9.20122 10.5
      vertex -5.62618 8.86544 3.5
      vertex -5.05841 9.20122 3.5
    endloop
  endfacet
  facet normal 0.453991 -0.891006 0
    outer loop
      vertex -5.05841 9.20122 3.5
      vertex -4.47068 9.50068 10.5
      vertex -5.05841 9.20122 10.5
    endloop
  endfacet
  facet normal 0.453991 -0.891006 0
    outer loop
      vertex -4.47068 9.50068 10.5
      vertex -5.05841 9.20122 3.5
      vertex -4.47068 9.50068 3.5
    endloop
  endfacet
  facet normal 0.397147 -0.917755 0
    outer loop
      vertex -4.47068 9.50068 3.5
      vertex -3.86531 9.76265 10.5
      vertex -4.47068 9.50068 10.5
    endloop
  endfacet
  facet normal 0.397147 -0.917755 0
    outer loop
      vertex -3.86531 9.76265 10.5
      vertex -4.47068 9.50068 3.5
      vertex -3.86531 9.76265 3.5
    endloop
  endfacet
  facet normal 0.338738 -0.940881 0
    outer loop
      vertex -3.86531 9.76265 3.5
      vertex -3.24468 9.98609 10.5
      vertex -3.86531 9.76265 10.5
    endloop
  endfacet
  facet normal 0.338738 -0.940881 0
    outer loop
      vertex -3.24468 9.98609 10.5
      vertex -3.86531 9.76265 3.5
      vertex -3.24468 9.98609 3.5
    endloop
  endfacet
  facet normal 0.278992 -0.960293 0
    outer loop
      vertex -3.24468 9.98609 3.5
      vertex -2.8 10.1153 10.5
      vertex -3.24468 9.98609 10.5
    endloop
  endfacet
  facet normal 0.278992 -0.960293 0
    outer loop
      vertex -2.8 10.1153 10.5
      vertex -3.24468 9.98609 3.5
      vertex -2.8 10.1153 3.5
    endloop
  endfacet
  facet normal 0.278992 0.960293 -0
    outer loop
      vertex -2.8 -10.1153 3.5
      vertex -3.24468 -9.98609 10.5
      vertex -2.8 -10.1153 10.5
    endloop
  endfacet
  facet normal 0.278992 0.960293 0
    outer loop
      vertex -3.24468 -9.98609 10.5
      vertex -2.8 -10.1153 3.5
      vertex -3.24468 -9.98609 3.5
    endloop
  endfacet
  facet normal 0.338738 0.940881 -0
    outer loop
      vertex -3.24468 -9.98609 3.5
      vertex -3.86531 -9.76265 10.5
      vertex -3.24468 -9.98609 10.5
    endloop
  endfacet
  facet normal 0.338738 0.940881 0
    outer loop
      vertex -3.86531 -9.76265 10.5
      vertex -3.24468 -9.98609 3.5
      vertex -3.86531 -9.76265 3.5
    endloop
  endfacet
  facet normal 0.397147 0.917755 -0
    outer loop
      vertex -3.86531 -9.76265 3.5
      vertex -4.47068 -9.50068 10.5
      vertex -3.86531 -9.76265 10.5
    endloop
  endfacet
  facet normal 0.397147 0.917755 0
    outer loop
      vertex -4.47068 -9.50068 10.5
      vertex -3.86531 -9.76265 3.5
      vertex -4.47068 -9.50068 3.5
    endloop
  endfacet
  facet normal 0.453991 0.891006 -0
    outer loop
      vertex -4.47068 -9.50068 3.5
      vertex -5.05841 -9.20122 10.5
      vertex -4.47068 -9.50068 10.5
    endloop
  endfacet
  facet normal 0.453991 0.891006 0
    outer loop
      vertex -5.05841 -9.20122 10.5
      vertex -4.47068 -9.50068 3.5
      vertex -5.05841 -9.20122 3.5
    endloop
  endfacet
  facet normal 0.509042 0.860742 -0
    outer loop
      vertex -5.05841 -9.20122 3.5
      vertex -5.62618 -8.86544 10.5
      vertex -5.05841 -9.20122 10.5
    endloop
  endfacet
  facet normal 0.509042 0.860742 0
    outer loop
      vertex -5.62618 -8.86544 10.5
      vertex -5.05841 -9.20122 3.5
      vertex -5.62618 -8.86544 3.5
    endloop
  endfacet
  facet normal 0.562083 0.827081 -0
    outer loop
      vertex -5.62618 -8.86544 3.5
      vertex -6.17174 -8.49468 10.5
      vertex -5.62618 -8.86544 10.5
    endloop
  endfacet
  facet normal 0.562083 0.827081 0
    outer loop
      vertex -6.17174 -8.49468 10.5
      vertex -5.62618 -8.86544 3.5
      vertex -6.17174 -8.49468 3.5
    endloop
  endfacet
  facet normal 0.612907 0.790155 -0
    outer loop
      vertex -6.17174 -8.49468 3.5
      vertex -6.69295 -8.09039 10.5
      vertex -6.17174 -8.49468 10.5
    endloop
  endfacet
  facet normal 0.612907 0.790155 0
    outer loop
      vertex -6.69295 -8.09039 10.5
      vertex -6.17174 -8.49468 3.5
      vertex -6.69295 -8.09039 3.5
    endloop
  endfacet
  facet normal 0.661312 0.750111 -0
    outer loop
      vertex -6.69295 -8.09039 3.5
      vertex -7.18774 -7.65417 10.5
      vertex -6.69295 -8.09039 10.5
    endloop
  endfacet
  facet normal 0.661312 0.750111 0
    outer loop
      vertex -7.18774 -7.65417 10.5
      vertex -6.69295 -8.09039 3.5
      vertex -7.18774 -7.65417 3.5
    endloop
  endfacet
  facet normal 0.707107 0.707107 0
    outer loop
      vertex -7.18774 -7.65417 10.5
      vertex -7.65417 -7.18774 3.5
      vertex -7.65417 -7.18774 10.5
    endloop
  endfacet
  facet normal 0.707107 0.707107 0
    outer loop
      vertex -7.65417 -7.18774 3.5
      vertex -7.18774 -7.65417 10.5
      vertex -7.18774 -7.65417 3.5
    endloop
  endfacet
  facet normal 0.750111 0.661312 0
    outer loop
      vertex -7.65417 -7.18774 10.5
      vertex -8.09039 -6.69295 3.5
      vertex -8.09039 -6.69295 10.5
    endloop
  endfacet
  facet normal 0.750111 0.661312 0
    outer loop
      vertex -8.09039 -6.69295 3.5
      vertex -7.65417 -7.18774 10.5
      vertex -7.65417 -7.18774 3.5
    endloop
  endfacet
  facet normal -0.790153 -0.612909 0
    outer loop
      vertex -2.8 -2.09793 3.5
      vertex -2.83156 -2.05725 10.5
      vertex -2.83156 -2.05725 3.5
    endloop
  endfacet
  facet normal -0.790153 -0.612909 0
    outer loop
      vertex -2.83156 -2.05725 10.5
      vertex -2.8 -2.09793 3.5
      vertex -2.8 -2.09793 10.5
    endloop
  endfacet
  facet normal 0.790155 0.612907 0
    outer loop
      vertex -8.09039 -6.69295 10.5
      vertex -8.49468 -6.17174 3.5
      vertex -8.49468 -6.17174 10.5
    endloop
  endfacet
  facet normal 0.790155 0.612907 0
    outer loop
      vertex -8.49468 -6.17174 3.5
      vertex -8.09039 -6.69295 10.5
      vertex -8.09039 -6.69295 3.5
    endloop
  endfacet
  facet normal -0.827083 -0.56208 0
    outer loop
      vertex -2.83156 -2.05725 3.5
      vertex -2.95515 -1.87539 10.5
      vertex -2.95515 -1.87539 3.5
    endloop
  endfacet
  facet normal -0.827083 -0.56208 0
    outer loop
      vertex -2.95515 -1.87539 10.5
      vertex -2.83156 -2.05725 3.5
      vertex -2.83156 -2.05725 10.5
    endloop
  endfacet
  facet normal 0.827081 0.562083 0
    outer loop
      vertex -8.49468 -6.17174 10.5
      vertex -8.86544 -5.62618 3.5
      vertex -8.86544 -5.62618 10.5
    endloop
  endfacet
  facet normal 0.827081 0.562083 0
    outer loop
      vertex -8.86544 -5.62618 3.5
      vertex -8.49468 -6.17174 10.5
      vertex -8.49468 -6.17174 3.5
    endloop
  endfacet
  facet normal -0.860741 -0.509043 0
    outer loop
      vertex -2.95515 -1.87539 3.5
      vertex -3.06707 -1.68614 10.5
      vertex -3.06707 -1.68614 3.5
    endloop
  endfacet
  facet normal -0.860741 -0.509043 0
    outer loop
      vertex -3.06707 -1.68614 10.5
      vertex -2.95515 -1.87539 3.5
      vertex -2.95515 -1.87539 10.5
    endloop
  endfacet
  facet normal 0.860742 0.509042 0
    outer loop
      vertex -8.86544 -5.62618 10.5
      vertex -9.20122 -5.05841 3.5
      vertex -9.20122 -5.05841 10.5
    endloop
  endfacet
  facet normal 0.860742 0.509042 0
    outer loop
      vertex -9.20122 -5.05841 3.5
      vertex -8.86544 -5.62618 10.5
      vertex -8.86544 -5.62618 3.5
    endloop
  endfacet
  facet normal -0.891007 -0.45399 0
    outer loop
      vertex -3.06707 -1.68614 3.5
      vertex -3.16689 -1.49023 10.5
      vertex -3.16689 -1.49023 3.5
    endloop
  endfacet
  facet normal -0.891007 -0.45399 0
    outer loop
      vertex -3.16689 -1.49023 10.5
      vertex -3.06707 -1.68614 3.5
      vertex -3.06707 -1.68614 10.5
    endloop
  endfacet
  facet normal 0.891006 0.453991 0
    outer loop
      vertex -9.20122 -5.05841 10.5
      vertex -9.50068 -4.47068 3.5
      vertex -9.50068 -4.47068 10.5
    endloop
  endfacet
  facet normal 0.891006 0.453991 0
    outer loop
      vertex -9.50068 -4.47068 3.5
      vertex -9.20122 -5.05841 10.5
      vertex -9.20122 -5.05841 3.5
    endloop
  endfacet
  facet normal -0.917754 -0.397148 0
    outer loop
      vertex -3.16689 -1.49023 3.5
      vertex -3.25422 -1.28843 10.5
      vertex -3.25422 -1.28843 3.5
    endloop
  endfacet
  facet normal -0.917754 -0.397148 0
    outer loop
      vertex -3.25422 -1.28843 10.5
      vertex -3.16689 -1.49023 3.5
      vertex -3.16689 -1.49023 10.5
    endloop
  endfacet
  facet normal 0.917755 0.397147 0
    outer loop
      vertex -9.50068 -4.47068 10.5
      vertex -9.76265 -3.86531 3.5
      vertex -9.76265 -3.86531 10.5
    endloop
  endfacet
  facet normal 0.917755 0.397147 0
    outer loop
      vertex -9.76265 -3.86531 3.5
      vertex -9.50068 -4.47068 10.5
      vertex -9.50068 -4.47068 3.5
    endloop
  endfacet
  facet normal -0.940881 -0.338739 0
    outer loop
      vertex -3.25422 -1.28843 3.5
      vertex -3.3287 -1.08156 10.5
      vertex -3.3287 -1.08156 3.5
    endloop
  endfacet
  facet normal -0.940881 -0.338739 0
    outer loop
      vertex -3.3287 -1.08156 10.5
      vertex -3.25422 -1.28843 3.5
      vertex -3.25422 -1.28843 10.5
    endloop
  endfacet
  facet normal 0.940881 0.338738 0
    outer loop
      vertex -9.76265 -3.86531 10.5
      vertex -9.98609 -3.24468 3.5
      vertex -9.98609 -3.24468 10.5
    endloop
  endfacet
  facet normal 0.940881 0.338738 0
    outer loop
      vertex -9.98609 -3.24468 3.5
      vertex -9.76265 -3.86531 10.5
      vertex -9.76265 -3.86531 3.5
    endloop
  endfacet
  facet normal -0.960294 -0.27899 0
    outer loop
      vertex -3.3287 -1.08156 3.5
      vertex -3.39004 -0.870414 10.5
      vertex -3.39004 -0.870414 3.5
    endloop
  endfacet
  facet normal -0.960294 -0.27899 0
    outer loop
      vertex -3.39004 -0.870414 10.5
      vertex -3.3287 -1.08156 3.5
      vertex -3.3287 -1.08156 10.5
    endloop
  endfacet
  facet normal 0.960293 0.278992 0
    outer loop
      vertex -9.98609 -3.24468 10.5
      vertex -10.1701 -2.61124 3.5
      vertex -10.1701 -2.61124 10.5
    endloop
  endfacet
  facet normal 0.960293 0.278992 0
    outer loop
      vertex -10.1701 -2.61124 3.5
      vertex -9.98609 -3.24468 10.5
      vertex -9.98609 -3.24468 3.5
    endloop
  endfacet
  facet normal -0.975917 -0.218143 0
    outer loop
      vertex -3.39004 -0.870414 3.5
      vertex -3.438 -0.655834 10.5
      vertex -3.438 -0.655834 3.5
    endloop
  endfacet
  facet normal -0.975917 -0.218143 0
    outer loop
      vertex -3.438 -0.655834 10.5
      vertex -3.39004 -0.870414 3.5
      vertex -3.39004 -0.870414 10.5
    endloop
  endfacet
  facet normal 0.975917 0.218142 0
    outer loop
      vertex -10.1701 -2.61124 10.5
      vertex -10.314 -1.9675 3.5
      vertex -10.314 -1.9675 10.5
    endloop
  endfacet
  facet normal 0.975917 0.218142 0
    outer loop
      vertex -10.314 -1.9675 3.5
      vertex -10.1701 -2.61124 10.5
      vertex -10.1701 -2.61124 3.5
    endloop
  endfacet
  facet normal -0.987688 -0.156435 0
    outer loop
      vertex -3.438 -0.655834 3.5
      vertex -3.4724 -0.438665 10.5
      vertex -3.4724 -0.438665 3.5
    endloop
  endfacet
  facet normal -0.987688 -0.156435 0
    outer loop
      vertex -3.4724 -0.438665 10.5
      vertex -3.438 -0.655834 3.5
      vertex -3.438 -0.655834 10.5
    endloop
  endfacet
  facet normal 0.987688 0.156435 0
    outer loop
      vertex -10.314 -1.9675 10.5
      vertex -10.4172 -1.316 3.5
      vertex -10.4172 -1.316 10.5
    endloop
  endfacet
  facet normal 0.987688 0.156435 0
    outer loop
      vertex -10.4172 -1.316 3.5
      vertex -10.314 -1.9675 10.5
      vertex -10.314 -1.9675 3.5
    endloop
  endfacet
  facet normal -0.995562 -0.0941119 0
    outer loop
      vertex -3.4724 -0.438665 3.5
      vertex -3.49309 -0.219767 10.5
      vertex -3.49309 -0.219767 3.5
    endloop
  endfacet
  facet normal -0.995562 -0.0941119 0
    outer loop
      vertex -3.49309 -0.219767 10.5
      vertex -3.4724 -0.438665 3.5
      vertex -3.4724 -0.438665 10.5
    endloop
  endfacet
  facet normal 0.995562 0.0941088 0
    outer loop
      vertex -10.4172 -1.316 10.5
      vertex -10.4793 -0.6593 3.5
      vertex -10.4793 -0.6593 10.5
    endloop
  endfacet
  facet normal 0.995562 0.0941088 0
    outer loop
      vertex -10.4793 -0.6593 3.5
      vertex -10.4172 -1.316 10.5
      vertex -10.4172 -1.316 3.5
    endloop
  endfacet
  facet normal -0.999507 -0.0314111 0
    outer loop
      vertex -3.49309 -0.219767 3.5
      vertex -3.5 0 10.5
      vertex -3.5 0 3.5
    endloop
  endfacet
  facet normal -0.999507 -0.0314111 0
    outer loop
      vertex -3.5 0 10.5
      vertex -3.49309 -0.219767 3.5
      vertex -3.49309 -0.219767 10.5
    endloop
  endfacet
  facet normal 0 0 -1
    outer loop
      vertex -3.24468 -9.98609 10.5
      vertex -2.8 -2.09793 10.5
      vertex -2.8 -10.1153 10.5
    endloop
  endfacet
  facet normal 0 0 -1
    outer loop
      vertex -3.86531 -9.76265 10.5
      vertex -2.8 -2.09793 10.5
      vertex -3.24468 -9.98609 10.5
    endloop
  endfacet
  facet normal 0 0 -1
    outer loop
      vertex -4.47068 -9.50068 10.5
      vertex -2.8 -2.09793 10.5
      vertex -3.86531 -9.76265 10.5
    endloop
  endfacet
  facet normal 0 0 -1
    outer loop
      vertex -5.05841 -9.20122 10.5
      vertex -2.8 -2.09793 10.5
      vertex -4.47068 -9.50068 10.5
    endloop
  endfacet
  facet normal 0 0 -1
    outer loop
      vertex -5.62618 -8.86544 10.5
      vertex -2.8 -2.09793 10.5
      vertex -5.05841 -9.20122 10.5
    endloop
  endfacet
  facet normal 0 0 -1
    outer loop
      vertex -6.17174 -8.49468 10.5
      vertex -2.8 -2.09793 10.5
      vertex -5.62618 -8.86544 10.5
    endloop
  endfacet
  facet normal 0 0 -1
    outer loop
      vertex -6.69295 -8.09039 10.5
      vertex -2.8 -2.09793 10.5
      vertex -6.17174 -8.49468 10.5
    endloop
  endfacet
  facet normal 0 0 -1
    outer loop
      vertex -7.18774 -7.65417 10.5
      vertex -2.8 -2.09793 10.5
      vertex -6.69295 -8.09039 10.5
    endloop
  endfacet
  facet normal 0 0 -1
    outer loop
      vertex -7.65417 -7.18774 10.5
      vertex -2.8 -2.09793 10.5
      vertex -7.18774 -7.65417 10.5
    endloop
  endfacet
  facet normal 0 0 -1
    outer loop
      vertex -8.09039 -6.69295 10.5
      vertex -2.8 -2.09793 10.5
      vertex -7.65417 -7.18774 10.5
    endloop
  endfacet
  facet normal 0 0 -1
    outer loop
      vertex -8.49468 -6.17174 10.5
      vertex -2.8 -2.09793 10.5
      vertex -8.09039 -6.69295 10.5
    endloop
  endfacet
  facet normal -0 0 -1
    outer loop
      vertex -2.8 -2.09793 10.5
      vertex -8.49468 -6.17174 10.5
      vertex -2.83156 -2.05725 10.5
    endloop
  endfacet
  facet normal -0 0 -1
    outer loop
      vertex -2.83156 -2.05725 10.5
      vertex -8.49468 -6.17174 10.5
      vertex -2.95515 -1.87539 10.5
    endloop
  endfacet
  facet normal 0 0 -1
    outer loop
      vertex -8.49468 6.17174 10.5
      vertex -2.8 2.09793 10.5
      vertex -2.83156 2.05725 10.5
    endloop
  endfacet
  facet normal 0 0 -1
    outer loop
      vertex -8.49468 6.17174 10.5
      vertex -2.83156 2.05725 10.5
      vertex -2.95515 1.87539 10.5
    endloop
  endfacet
  facet normal 0 0 -1
    outer loop
      vertex -8.86544 5.62618 10.5
      vertex -2.95515 1.87539 10.5
      vertex -3.06707 1.68614 10.5
    endloop
  endfacet
  facet normal 0 0 -1
    outer loop
      vertex -9.20122 5.05841 10.5
      vertex -3.06707 1.68614 10.5
      vertex -3.16689 1.49023 10.5
    endloop
  endfacet
  facet normal 0 0 -1
    outer loop
      vertex -2.8 2.09793 10.5
      vertex -3.24468 9.98609 10.5
      vertex -2.8 10.1153 10.5
    endloop
  endfacet
  facet normal 0 0 -1
    outer loop
      vertex -9.50068 4.47068 10.5
      vertex -3.16689 1.49023 10.5
      vertex -3.25422 1.28843 10.5
    endloop
  endfacet
  facet normal 0 0 -1
    outer loop
      vertex -9.76265 3.86531 10.5
      vertex -3.25422 1.28843 10.5
      vertex -3.3287 1.08156 10.5
    endloop
  endfacet
  facet normal 0 0 -1
    outer loop
      vertex -9.98609 3.24468 10.5
      vertex -3.3287 1.08156 10.5
      vertex -3.39004 0.870414 10.5
    endloop
  endfacet
  facet normal 0 0 -1
    outer loop
      vertex -10.1701 2.61124 10.5
      vertex -3.39004 0.870414 10.5
      vertex -3.438 0.655834 10.5
    endloop
  endfacet
  facet normal 0 0 -1
    outer loop
      vertex -10.314 1.9675 10.5
      vertex -3.438 0.655834 10.5
      vertex -3.4724 0.438665 10.5
    endloop
  endfacet
  facet normal 0 0 -1
    outer loop
      vertex -10.4172 1.316 10.5
      vertex -3.4724 0.438665 10.5
      vertex -3.49309 0.219767 10.5
    endloop
  endfacet
  facet normal 0 0 -1
    outer loop
      vertex -10.4793 0.6593 10.5
      vertex -3.49309 0.219767 10.5
      vertex -3.5 0 10.5
    endloop
  endfacet
  facet normal 0 0 -1
    outer loop
      vertex -8.86544 -5.62618 10.5
      vertex -2.95515 -1.87539 10.5
      vertex -8.49468 -6.17174 10.5
    endloop
  endfacet
  facet normal 0 0 -1
    outer loop
      vertex -2.8 2.09793 10.5
      vertex -3.86531 9.76265 10.5
      vertex -3.24468 9.98609 10.5
    endloop
  endfacet
  facet normal -0 0 -1
    outer loop
      vertex -2.95515 -1.87539 10.5
      vertex -8.86544 -5.62618 10.5
      vertex -3.06707 -1.68614 10.5
    endloop
  endfacet
  facet normal 0 0 -1
    outer loop
      vertex -2.8 2.09793 10.5
      vertex -4.47068 9.50068 10.5
      vertex -3.86531 9.76265 10.5
    endloop
  endfacet
  facet normal 0 0 -1
    outer loop
      vertex -9.20122 -5.05841 10.5
      vertex -3.06707 -1.68614 10.5
      vertex -8.86544 -5.62618 10.5
    endloop
  endfacet
  facet normal 0 0 -1
    outer loop
      vertex -2.8 2.09793 10.5
      vertex -5.05841 9.20122 10.5
      vertex -4.47068 9.50068 10.5
    endloop
  endfacet
  facet normal -0 0 -1
    outer loop
      vertex -3.06707 -1.68614 10.5
      vertex -9.20122 -5.05841 10.5
      vertex -3.16689 -1.49023 10.5
    endloop
  endfacet
  facet normal 0 0 -1
    outer loop
      vertex -2.8 2.09793 10.5
      vertex -5.62618 8.86544 10.5
      vertex -5.05841 9.20122 10.5
    endloop
  endfacet
  facet normal 0 0 -1
    outer loop
      vertex -9.50068 -4.47068 10.5
      vertex -3.16689 -1.49023 10.5
      vertex -9.20122 -5.05841 10.5
    endloop
  endfacet
  facet normal 0 0 -1
    outer loop
      vertex -2.8 2.09793 10.5
      vertex -6.17174 8.49468 10.5
      vertex -5.62618 8.86544 10.5
    endloop
  endfacet
  facet normal -0 0 -1
    outer loop
      vertex -3.16689 -1.49023 10.5
      vertex -9.50068 -4.47068 10.5
      vertex -3.25422 -1.28843 10.5
    endloop
  endfacet
  facet normal 0 0 -1
    outer loop
      vertex -2.8 2.09793 10.5
      vertex -6.69295 8.09039 10.5
      vertex -6.17174 8.49468 10.5
    endloop
  endfacet
  facet normal 0 0 -1
    outer loop
      vertex -9.76265 -3.86531 10.5
      vertex -3.25422 -1.28843 10.5
      vertex -9.50068 -4.47068 10.5
    endloop
  endfacet
  facet normal 0 0 -1
    outer loop
      vertex -2.8 2.09793 10.5
      vertex -7.18774 7.65417 10.5
      vertex -6.69295 8.09039 10.5
    endloop
  endfacet
  facet normal -0 0 -1
    outer loop
      vertex -3.25422 -1.28843 10.5
      vertex -9.76265 -3.86531 10.5
      vertex -3.3287 -1.08156 10.5
    endloop
  endfacet
  facet normal 0 0 -1
    outer loop
      vertex -2.8 2.09793 10.5
      vertex -7.65417 7.18774 10.5
      vertex -7.18774 7.65417 10.5
    endloop
  endfacet
  facet normal 0 0 -1
    outer loop
      vertex -9.98609 -3.24468 10.5
      vertex -3.3287 -1.08156 10.5
      vertex -9.76265 -3.86531 10.5
    endloop
  endfacet
  facet normal 0 0 -1
    outer loop
      vertex -2.8 2.09793 10.5
      vertex -8.09039 6.69295 10.5
      vertex -7.65417 7.18774 10.5
    endloop
  endfacet
  facet normal -0 0 -1
    outer loop
      vertex -3.3287 -1.08156 10.5
      vertex -9.98609 -3.24468 10.5
      vertex -3.39004 -0.870414 10.5
    endloop
  endfacet
  facet normal 0 0 -1
    outer loop
      vertex -2.8 2.09793 10.5
      vertex -8.49468 6.17174 10.5
      vertex -8.09039 6.69295 10.5
    endloop
  endfacet
  facet normal 0 0 -1
    outer loop
      vertex -10.1701 -2.61124 10.5
      vertex -3.39004 -0.870414 10.5
      vertex -9.98609 -3.24468 10.5
    endloop
  endfacet
  facet normal 0 0 -1
    outer loop
      vertex -2.95515 1.87539 10.5
      vertex -8.86544 5.62618 10.5
      vertex -8.49468 6.17174 10.5
    endloop
  endfacet
  facet normal -0 0 -1
    outer loop
      vertex -3.39004 -0.870414 10.5
      vertex -10.1701 -2.61124 10.5
      vertex -3.438 -0.655834 10.5
    endloop
  endfacet
  facet normal 0 0 -1
    outer loop
      vertex -3.06707 1.68614 10.5
      vertex -9.20122 5.05841 10.5
      vertex -8.86544 5.62618 10.5
    endloop
  endfacet
  facet normal 0 0 -1
    outer loop
      vertex -10.314 -1.9675 10.5
      vertex -3.438 -0.655834 10.5
      vertex -10.1701 -2.61124 10.5
    endloop
  endfacet
  facet normal 0 0 -1
    outer loop
      vertex -3.16689 1.49023 10.5
      vertex -9.50068 4.47068 10.5
      vertex -9.20122 5.05841 10.5
    endloop
  endfacet
  facet normal -0 0 -1
    outer loop
      vertex -3.438 -0.655834 10.5
      vertex -10.314 -1.9675 10.5
      vertex -3.4724 -0.438665 10.5
    endloop
  endfacet
  facet normal 0 0 -1
    outer loop
      vertex -3.25422 1.28843 10.5
      vertex -9.76265 3.86531 10.5
      vertex -9.50068 4.47068 10.5
    endloop
  endfacet
  facet normal 0 0 -1
    outer loop
      vertex -10.4172 -1.316 10.5
      vertex -3.4724 -0.438665 10.5
      vertex -10.314 -1.9675 10.5
    endloop
  endfacet
  facet normal 0 0 -1
    outer loop
      vertex -3.3287 1.08156 10.5
      vertex -9.98609 3.24468 10.5
      vertex -9.76265 3.86531 10.5
    endloop
  endfacet
  facet normal -0 0 -1
    outer loop
      vertex -3.4724 -0.438665 10.5
      vertex -10.4172 -1.316 10.5
      vertex -3.49309 -0.219767 10.5
    endloop
  endfacet
  facet normal 0 0 -1
    outer loop
      vertex -3.39004 0.870414 10.5
      vertex -10.1701 2.61124 10.5
      vertex -9.98609 3.24468 10.5
    endloop
  endfacet
  facet normal 0 0 -1
    outer loop
      vertex -10.4793 -0.6593 10.5
      vertex -3.49309 -0.219767 10.5
      vertex -10.4172 -1.316 10.5
    endloop
  endfacet
  facet normal 0 0 -1
    outer loop
      vertex -3.438 0.655834 10.5
      vertex -10.314 1.9675 10.5
      vertex -10.1701 2.61124 10.5
    endloop
  endfacet
  facet normal -0 0 -1
    outer loop
      vertex -3.49309 -0.219767 10.5
      vertex -10.4793 -0.6593 10.5
      vertex -3.5 0 10.5
    endloop
  endfacet
  facet normal 0 0 -1
    outer loop
      vertex -3.4724 0.438665 10.5
      vertex -10.4172 1.316 10.5
      vertex -10.314 1.9675 10.5
    endloop
  endfacet
  facet normal 0 0 -1
    outer loop
      vertex -10.5 0 10.5
      vertex -3.5 0 10.5
      vertex -10.4793 -0.6593 10.5
    endloop
  endfacet
  facet normal 0 0 -1
    outer loop
      vertex -3.49309 0.219767 10.5
      vertex -10.4793 0.6593 10.5
      vertex -10.4172 1.316 10.5
    endloop
  endfacet
  facet normal 0 0 -1
    outer loop
      vertex -3.5 0 10.5
      vertex -10.5 0 10.5
      vertex -10.4793 0.6593 10.5
    endloop
  endfacet
  facet normal 0.999507 0.0314111 0
    outer loop
      vertex -10.4793 -0.6593 10.5
      vertex -10.5 0 3.5
      vertex -10.5 0 10.5
    endloop
  endfacet
  facet normal 0.999507 0.0314111 0
    outer loop
      vertex -10.5 0 3.5
      vertex -10.4793 -0.6593 10.5
      vertex -10.4793 -0.6593 3.5
    endloop
  endfacet
  facet normal 1 0 0
    outer loop
      vertex 0 14 14
      vertex 0 13.125 13.125
      vertex 0 14 0
    endloop
  endfacet
  facet normal 1 0 0
    outer loop
      vertex 0 14 14
      vertex 0 0.875 13.125
      vertex 0 13.125 13.125
    endloop
  endfacet
  facet normal 1 0 0
    outer loop
      vertex 0 0.875 13.125
      vertex 0 -0.875 13.125
      vertex 0 0.875 0.875
    endloop
  endfacet
  facet normal 1 0 0
    outer loop
      vertex 0 14 14
      vertex 0 -0.875 13.125
      vertex 0 0.875 13.125
    endloop
  endfacet
  facet normal 1 -0 0
    outer loop
      vertex 0 -14 14
      vertex 0 -0.875 13.125
      vertex 0 14 14
    endloop
  endfacet
  facet normal 1 0 0
    outer loop
      vertex 0 -13.125 13.125
      vertex 0 -14 14
      vertex 0 -13.125 0.875
    endloop
  endfacet
  facet normal 1 0 0
    outer loop
      vertex 0 -0.875 13.125
      vertex 0 -14 14
      vertex 0 -13.125 13.125
    endloop
  endfacet
  facet normal 1 -0 0
    outer loop
      vertex 0 13.125 0.875
      vertex 0 14 0
      vertex 0 13.125 13.125
    endloop
  endfacet
  facet normal 1 -0 0
    outer loop
      vertex 0 0.875 0.875
      vertex 0 14 0
      vertex 0 13.125 0.875
    endloop
  endfacet
  facet normal 1 0 0
    outer loop
      vertex 0 -0.875 0.875
      vertex 0 0.875 0.875
      vertex 0 -0.875 13.125
    endloop
  endfacet
  facet normal 1 -0 0
    outer loop
      vertex 0 -0.875 0.875
      vertex 0 14 0
      vertex 0 0.875 0.875
    endloop
  endfacet
  facet normal 1 0 0
    outer loop
      vertex 0 -14 0
      vertex 0 -0.875 0.875
      vertex 0 -13.125 0.875
    endloop
  endfacet
  facet normal 1 0 0
    outer loop
      vertex 0 -0.875 0.875
      vertex 0 -14 0
      vertex 0 14 0
    endloop
  endfacet
  facet normal 1 0 0
    outer loop
      vertex 0 -14 0
      vertex 0 -13.125 0.875
      vertex 0 -14 14
    endloop
  endfacet
  facet normal 1 0 0
    outer loop
      vertex -2.8 13.125 13.125
      vertex -2.8 10.1153 10.5
      vertex -2.8 13.125 0.875
    endloop
  endfacet
  facet normal 1 -0 0
    outer loop
      vertex -2.8 0.875 13.125
      vertex -2.8 10.1153 10.5
      vertex -2.8 13.125 13.125
    endloop
  endfacet
  facet normal 1 0 0
    outer loop
      vertex -2.8 2.09793 10.5
      vertex -2.8 0.875 13.125
      vertex -2.8 2.09793 3.5
    endloop
  endfacet
  facet normal 1 0 0
    outer loop
      vertex -2.8 10.1153 10.5
      vertex -2.8 0.875 13.125
      vertex -2.8 2.09793 10.5
    endloop
  endfacet
  facet normal 1 -0 0
    outer loop
      vertex -2.8 10.1153 3.5
      vertex -2.8 13.125 0.875
      vertex -2.8 10.1153 10.5
    endloop
  endfacet
  facet normal 1 0 0
    outer loop
      vertex -2.8 0.875 0.875
      vertex -2.8 10.1153 3.5
      vertex -2.8 2.09793 3.5
    endloop
  endfacet
  facet normal 1 0 0
    outer loop
      vertex -2.8 10.1153 3.5
      vertex -2.8 0.875 0.875
      vertex -2.8 13.125 0.875
    endloop
  endfacet
  facet normal 1 0 0
    outer loop
      vertex -2.8 0.875 0.875
      vertex -2.8 2.09793 3.5
      vertex -2.8 0.875 13.125
    endloop
  endfacet
  facet normal 0 0 -1
    outer loop
      vertex -2.8 0.875 13.125
      vertex 0 13.125 13.125
      vertex 0 0.875 13.125
    endloop
  endfacet
  facet normal -0 0 -1
    outer loop
      vertex 0 13.125 13.125
      vertex -2.8 0.875 13.125
      vertex -2.8 13.125 13.125
    endloop
  endfacet
  facet normal -0 0 1
    outer loop
      vertex -2.8 13.125 0.875
      vertex 0 0.875 0.875
      vertex 0 13.125 0.875
    endloop
  endfacet
  facet normal 0 0 1
    outer loop
      vertex 0 0.875 0.875
      vertex -2.8 13.125 0.875
      vertex -2.8 0.875 0.875
    endloop
  endfacet
  facet normal 0 1 -0
    outer loop
      vertex 0 0.875 0.875
      vertex -2.8 0.875 13.125
      vertex 0 0.875 13.125
    endloop
  endfacet
  facet normal 0 1 0
    outer loop
      vertex -2.8 0.875 13.125
      vertex 0 0.875 0.875
      vertex -2.8 0.875 0.875
    endloop
  endfacet
  facet normal 0 -1 0
    outer loop
      vertex -2.8 13.125 0.875
      vertex 0 13.125 13.125
      vertex -2.8 13.125 13.125
    endloop
  endfacet
  facet normal 0 -1 -0
    outer loop
      vertex 0 13.125 13.125
      vertex -2.8 13.125 0.875
      vertex 0 13.125 0.875
    endloop
  endfacet
  facet normal 1 0 0
    outer loop
      vertex -2.8 -0.875 13.125
      vertex -2.8 -2.09793 10.5
      vertex -2.8 -0.875 0.875
    endloop
  endfacet
  facet normal 1 0 0
    outer loop
      vertex -2.8 -0.875 13.125
      vertex -2.8 -10.1153 10.5
      vertex -2.8 -2.09793 10.5
    endloop
  endfacet
  facet normal 1 0 0
    outer loop
      vertex -2.8 -10.1153 10.5
      vertex -2.8 -13.125 13.125
      vertex -2.8 -10.1153 3.5
    endloop
  endfacet
  facet normal 1 -0 0
    outer loop
      vertex -2.8 -13.125 13.125
      vertex -2.8 -10.1153 10.5
      vertex -2.8 -0.875 13.125
    endloop
  endfacet
  facet normal 1 -0 0
    outer loop
      vertex -2.8 -2.09793 3.5
      vertex -2.8 -0.875 0.875
      vertex -2.8 -2.09793 10.5
    endloop
  endfacet
  facet normal 1 -0 0
    outer loop
      vertex -2.8 -10.1153 3.5
      vertex -2.8 -0.875 0.875
      vertex -2.8 -2.09793 3.5
    endloop
  endfacet
  facet normal 1 0 0
    outer loop
      vertex -2.8 -10.1153 3.5
      vertex -2.8 -13.125 0.875
      vertex -2.8 -0.875 0.875
    endloop
  endfacet
  facet normal 1 0 0
    outer loop
      vertex -2.8 -13.125 0.875
      vertex -2.8 -10.1153 3.5
      vertex -2.8 -13.125 13.125
    endloop
  endfacet
  facet normal 0 0 -1
    outer loop
      vertex -2.8 -13.125 13.125
      vertex 0 -0.875 13.125
      vertex 0 -13.125 13.125
    endloop
  endfacet
  facet normal -0 0 -1
    outer loop
      vertex 0 -0.875 13.125
      vertex -2.8 -13.125 13.125
      vertex -2.8 -0.875 13.125
    endloop
  endfacet
  facet normal 0 -1 0
    outer loop
      vertex -2.8 -0.875 0.875
      vertex 0 -0.875 13.125
      vertex -2.8 -0.875 13.125
    endloop
  endfacet
  facet normal 0 -1 -0
    outer loop
      vertex 0 -0.875 13.125
      vertex -2.8 -0.875 0.875
      vertex 0 -0.875 0.875
    endloop
  endfacet
  facet normal -0 0 1
    outer loop
      vertex -2.8 -0.875 0.875
      vertex 0 -13.125 0.875
      vertex 0 -0.875 0.875
    endloop
  endfacet
  facet normal 0 0 1
    outer loop
      vertex 0 -13.125 0.875
      vertex -2.8 -0.875 0.875
      vertex -2.8 -13.125 0.875
    endloop
  endfacet
  facet normal 0 1 -0
    outer loop
      vertex 0 -13.125 0.875
      vertex -2.8 -13.125 13.125
      vertex 0 -13.125 13.125
    endloop
  endfacet
  facet normal 0 1 0
    outer loop
      vertex -2.8 -13.125 13.125
      vertex 0 -13.125 0.875
      vertex -2.8 -13.125 0.875
    endloop
  endfacet
endsolid OpenSCAD_Model
