solid OpenSCAD_Model
  facet normal -1 0 0
    outer loop
      vertex -2.8 13.125 0.875
      vertex -2.8 10.675 3.325
      vertex -2.8 13.125 13.125
    endloop
  endfacet
  facet normal -1 0 0
    outer loop
      vertex -2.8 13.125 0.875
      vertex -2.8 3.325 3.325
      vertex -2.8 10.675 3.325
    endloop
  endfacet
  facet normal -1 -0 0
    outer loop
      vertex -2.8 3.325 3.325
      vertex -2.8 0.875 0.875
      vertex -2.8 3.325 10.675
    endloop
  endfacet
  facet normal -1 0 0
    outer loop
      vertex -2.8 0.875 0.875
      vertex -2.8 3.325 3.325
      vertex -2.8 13.125 0.875
    endloop
  endfacet
  facet normal -1 0 0
    outer loop
      vertex -2.8 10.675 10.675
      vertex -2.8 13.125 13.125
      vertex -2.8 10.675 3.325
    endloop
  endfacet
  facet normal -1 0 0
    outer loop
      vertex -2.8 3.325 10.675
      vertex -2.8 13.125 13.125
      vertex -2.8 10.675 10.675
    endloop
  endfacet
  facet normal -1 0 0
    outer loop
      vertex -2.8 3.325 10.675
      vertex -2.8 0.875 13.125
      vertex -2.8 13.125 13.125
    endloop
  endfacet
  facet normal -1 0 0
    outer loop
      vertex -2.8 0.875 13.125
      vertex -2.8 3.325 10.675
      vertex -2.8 0.875 0.875
    endloop
  endfacet
  facet normal -0 0 1
    outer loop
      vertex -2.8 13.125 13.125
      vertex 2.8 0.875 13.125
      vertex 2.8 13.125 13.125
    endloop
  endfacet
  facet normal 0 0 1
    outer loop
      vertex 2.8 0.875 13.125
      vertex -2.8 13.125 13.125
      vertex -2.8 0.875 13.125
    endloop
  endfacet
  facet normal 1 0 0
    outer loop
      vertex 2.8 13.125 13.125
      vertex 2.8 10.675 10.675
      vertex 2.8 13.125 0.875
    endloop
  endfacet
  facet normal 1 0 0
    outer loop
      vertex 2.8 13.125 13.125
      vertex 2.8 3.325 10.675
      vertex 2.8 10.675 10.675
    endloop
  endfacet
  facet normal 1 0 0
    outer loop
      vertex 2.8 3.325 10.675
      vertex 2.8 0.875 13.125
      vertex 2.8 3.325 3.325
    endloop
  endfacet
  facet normal 1 -0 0
    outer loop
      vertex 2.8 0.875 13.125
      vertex 2.8 3.325 10.675
      vertex 2.8 13.125 13.125
    endloop
  endfacet
  facet normal 1 -0 0
    outer loop
      vertex 2.8 10.675 3.325
      vertex 2.8 13.125 0.875
      vertex 2.8 10.675 10.675
    endloop
  endfacet
  facet normal 1 -0 0
    outer loop
      vertex 2.8 3.325 3.325
      vertex 2.8 13.125 0.875
      vertex 2.8 10.675 3.325
    endloop
  endfacet
  facet normal 1 0 0
    outer loop
      vertex 2.8 3.325 3.325
      vertex 2.8 0.875 0.875
      vertex 2.8 13.125 0.875
    endloop
  endfacet
  facet normal 1 0 0
    outer loop
      vertex 2.8 0.875 0.875
      vertex 2.8 3.325 3.325
      vertex 2.8 0.875 13.125
    endloop
  endfacet
  facet normal 0 0 -1
    outer loop
      vertex -2.8 0.875 0.875
      vertex 2.8 13.125 0.875
      vertex 2.8 0.875 0.875
    endloop
  endfacet
  facet normal -0 0 -1
    outer loop
      vertex 2.8 13.125 0.875
      vertex -2.8 0.875 0.875
      vertex -2.8 13.125 0.875
    endloop
  endfacet
  facet normal 0 -1 0
    outer loop
      vertex -2.8 0.875 0.875
      vertex 2.8 0.875 13.125
      vertex -2.8 0.875 13.125
    endloop
  endfacet
  facet normal 0 -1 -0
    outer loop
      vertex 2.8 0.875 13.125
      vertex -2.8 0.875 0.875
      vertex 2.8 0.875 0.875
    endloop
  endfacet
  facet normal 0 1 -0
    outer loop
      vertex 2.8 13.125 0.875
      vertex -2.8 13.125 13.125
      vertex 2.8 13.125 13.125
    endloop
  endfacet
  facet normal 0 1 0
    outer loop
      vertex -2.8 13.125 13.125
      vertex 2.8 13.125 0.875
      vertex -2.8 13.125 0.875
    endloop
  endfacet
  facet normal 0 0 -1
    outer loop
      vertex -2.8 3.325 10.675
      vertex 2.8 10.675 10.675
      vertex 2.8 3.325 10.675
    endloop
  endfacet
  facet normal -0 0 -1
    outer loop
      vertex 2.8 10.675 10.675
      vertex -2.8 3.325 10.675
      vertex -2.8 10.675 10.675
    endloop
  endfacet
  facet normal -0 0 1
    outer loop
      vertex -2.8 10.675 3.325
      vertex 2.8 3.325 3.325
      vertex 2.8 10.675 3.325
    endloop
  endfacet
  facet normal 0 0 1
    outer loop
      vertex 2.8 3.325 3.325
      vertex -2.8 10.675 3.325
      vertex -2.8 3.325 3.325
    endloop
  endfacet
  facet normal 0 1 -0
    outer loop
      vertex 2.8 3.325 3.325
      vertex -2.8 3.325 10.675
      vertex 2.8 3.325 10.675
    endloop
  endfacet
  facet normal 0 1 0
    outer loop
      vertex -2.8 3.325 10.675
      vertex 2.8 3.325 3.325
      vertex -2.8 3.325 3.325
    endloop
  endfacet
  facet normal 0 -1 0
    outer loop
      vertex -2.8 10.675 3.325
      vertex 2.8 10.675 10.675
      vertex -2.8 10.675 10.675
    endloop
  endfacet
  facet normal 0 -1 -0
    outer loop
      vertex 2.8 10.675 10.675
      vertex -2.8 10.675 3.325
      vertex 2.8 10.675 3.325
    endloop
  endfacet
endsolid OpenSCAD_Model
